<svg width="2412" height="1566" viewBox="0 0 2412 1566" fill="none" xmlns="http://www.w3.org/2000/svg">
<path opacity="0.01" d="M100.818 614.833C161.878 711.018 283.98 765.812 387.515 764.582C441.116 757.864 508.626 742.758 581.032 606.122C688.728 402.895 762.341 455.22 804.03 553.531C845.719 651.842 854.093 792.734 941.81 822.966C1029.53 853.199 1097.57 705.757 1188.5 728.393C1328.38 763.215 1277.64 1096.03 1292.69 1216.33C1307.73 1336.64 1335.29 1513.74 1472.95 1405.15C1610.61 1296.56 1669.52 1217.02 1737.32 1314.45C1805.12 1411.89 1879.48 1432.29 1953.12 1387.71C2012.03 1352.04 2038.07 1339.75 2043.73 1338.06C2058.76 1331.18 2103.34 1323.58 2161.4 1348.17" stroke="url(#paint0_linear_3311_2)"/>
<path opacity="0.0204082" d="M100.234 613.187C161.61 709.054 283.851 763.373 387.33 761.795C440.88 754.904 508.303 739.588 580.181 602.869C687.09 399.517 760.856 451.533 802.88 549.588C844.903 647.644 853.781 788.342 941.563 818.244C1029.35 848.146 1096.82 700.647 1187.79 722.951C1327.73 757.261 1278.22 1089.85 1293.69 1209.97C1309.16 1330.08 1337.35 1506.89 1474.54 1397.96C1611.74 1289.04 1670.34 1209.38 1738.45 1306.48C1806.57 1403.57 1880.97 1423.69 1954.41 1378.92C2013.16 1343.1 2039.15 1330.73 2044.8 1329.03C2059.8 1322.11 2104.33 1314.36 2162.45 1338.73" stroke="url(#paint1_linear_3311_2)"/>
<path opacity="0.0408163" d="M99.6516 611.538C161.344 707.085 283.72 760.928 387.143 759.004C440.642 751.941 507.977 736.416 579.327 599.614C685.451 396.141 759.368 447.846 801.724 545.645C844.081 643.445 853.461 783.948 941.308 813.519C1029.16 843.09 1096.07 695.537 1187.07 717.507C1327.07 751.306 1278.78 1083.67 1294.68 1203.6C1310.57 1323.52 1339.38 1500.02 1476.12 1390.76C1612.85 1281.5 1671.13 1201.74 1739.57 1298.49C1808 1395.25 1882.44 1415.09 1955.68 1370.12C2014.28 1334.15 2040.2 1321.71 2045.84 1319.98C2060.81 1313.02 2105.29 1305.13 2163.47 1329.28" stroke="url(#paint2_linear_3311_2)"/>
<path opacity="0.0612245" d="M99.0641 609.885C161.07 705.112 283.581 758.479 386.947 756.209C440.394 748.973 507.639 733.239 578.461 596.358C683.8 392.765 757.868 444.161 800.556 541.702C843.244 639.244 853.126 779.551 941.037 808.79C1028.95 838.03 1095.3 690.425 1186.33 712.063C1326.38 745.35 1279.32 1077.49 1295.64 1197.22C1311.96 1316.95 1341.39 1493.14 1477.66 1383.55C1613.94 1273.96 1671.9 1194.1 1740.65 1290.5C1809.4 1386.91 1883.87 1406.48 1956.92 1361.32C2015.36 1325.19 2041.23 1312.68 2046.86 1310.94C2061.79 1303.93 2106.22 1295.9 2164.46 1319.82" stroke="url(#paint3_linear_3311_2)"/>
<path opacity="0.0816327" d="M98.4711 608.229C160.79 703.135 283.433 756.026 386.74 753.409C440.135 746.001 507.291 730.059 577.585 593.1C682.14 389.392 756.356 440.477 799.374 537.759C842.393 635.042 852.776 775.15 940.749 804.059C1028.72 832.968 1094.51 685.312 1185.58 706.618C1325.68 739.392 1279.83 1071.3 1296.57 1190.83C1313.32 1310.36 1343.37 1486.25 1479.18 1376.33C1615 1266.41 1672.65 1186.44 1741.71 1282.51C1810.77 1378.57 1885.27 1397.87 1958.12 1352.51C2016.4 1316.22 2042.21 1303.64 2047.84 1301.88C2062.74 1294.83 2107.12 1286.66 2165.41 1310.36" stroke="url(#paint4_linear_3311_2)"/>
<path opacity="0.102041" d="M97.8805 606.57C160.51 701.153 283.284 753.567 386.531 750.605C439.873 743.026 506.939 726.875 576.706 589.841C680.476 386.019 754.84 436.794 798.188 533.816C841.535 630.839 852.417 770.747 940.451 799.324C1028.49 827.902 1093.71 680.198 1184.81 701.171C1324.96 733.434 1280.33 1065.11 1297.49 1184.44C1314.66 1303.77 1345.33 1479.35 1480.68 1369.1C1616.03 1258.85 1673.37 1178.79 1742.74 1274.5C1812.12 1370.22 1886.65 1389.24 1959.3 1343.69C2017.42 1307.25 2043.18 1294.6 2048.79 1292.82C2063.66 1285.73 2107.99 1277.42 2166.34 1300.89" stroke="url(#paint5_linear_3311_2)"/>
<path opacity="0.122449" d="M97.2921 604.907C160.232 699.167 283.134 751.104 386.32 747.797C439.609 740.046 506.584 723.688 575.824 586.58C678.811 382.649 753.321 433.112 796.996 529.873C840.671 626.635 852.051 766.34 940.145 794.587C1028.24 822.833 1092.9 675.084 1184.03 695.724C1324.23 727.475 1280.81 1058.91 1298.4 1178.04C1315.99 1297.18 1347.27 1472.45 1482.16 1361.87C1617.05 1251.29 1674.07 1171.12 1743.75 1266.49C1813.44 1361.86 1888.01 1380.61 1960.46 1334.87C2018.42 1298.27 2044.11 1285.55 2049.72 1283.76C2064.56 1276.62 2108.83 1268.17 2167.24 1291.42" stroke="url(#paint6_linear_3311_2)"/>
<path opacity="0.142857" d="M96.6983 603.241C159.946 697.177 282.975 748.637 386.099 744.984C439.334 737.063 506.217 720.498 574.931 583.317C677.135 379.279 751.79 429.431 795.792 525.93C839.793 622.429 851.67 761.931 939.822 789.846C1027.97 817.761 1092.07 669.968 1183.23 690.276C1323.48 721.515 1281.27 1052.7 1299.28 1171.64C1317.29 1290.57 1349.19 1465.53 1483.61 1354.62C1618.04 1243.72 1674.74 1163.46 1744.74 1258.48C1814.73 1353.5 1889.33 1371.97 1961.58 1326.04C2019.38 1289.29 2045.02 1276.49 2050.61 1274.69C2065.42 1267.51 2109.64 1258.92 2168.1 1281.94" stroke="url(#paint7_linear_3311_2)"/>
<path opacity="0.163265" d="M96.0989 601.572C159.653 695.182 282.807 746.165 385.867 742.167C439.048 734.075 505.84 717.304 574.028 580.053C675.448 375.911 750.247 425.751 794.574 521.987C838.901 618.223 851.273 757.519 939.483 785.103C1027.69 812.686 1091.23 664.852 1182.42 684.827C1322.71 715.555 1281.71 1046.49 1300.14 1165.22C1318.56 1283.96 1351.08 1458.6 1485.04 1347.37C1619 1236.14 1675.39 1155.78 1745.69 1250.45C1815.99 1345.12 1890.62 1363.32 1962.67 1317.2C2020.31 1280.3 2045.89 1267.43 2051.47 1265.61C2066.25 1258.39 2110.42 1249.66 2168.93 1272.46" stroke="url(#paint8_linear_3311_2)"/>
<path opacity="0.183673" d="M95.5018 599.899C159.361 693.183 282.638 743.688 385.634 739.347C438.76 731.084 505.459 714.106 573.121 576.788C673.759 372.545 748.701 422.072 793.352 518.044C838.003 614.015 850.869 753.104 939.135 780.357C1027.4 807.609 1090.37 659.735 1181.59 679.377C1321.92 709.594 1282.14 1040.28 1300.98 1158.8C1319.82 1277.33 1352.94 1451.66 1486.44 1340.11C1619.94 1228.56 1676.01 1148.11 1746.62 1242.43C1817.23 1336.75 1891.88 1354.67 1963.73 1308.36C2021.21 1271.31 2046.73 1258.37 2052.31 1256.53C2067.05 1249.27 2111.17 1240.4 2169.74 1262.97" stroke="url(#paint9_linear_3311_2)"/>
<path opacity="0.204082" d="M94.9031 598.223C159.066 691.179 282.464 741.207 385.395 736.522C438.465 728.089 505.071 710.905 572.207 573.521C672.064 369.181 747.147 418.395 792.12 514.101C837.094 609.807 850.453 748.687 938.773 775.608C1027.09 802.528 1089.5 654.617 1180.75 673.927C1321.12 703.632 1282.54 1034.06 1301.8 1152.38C1321.06 1270.7 1354.79 1444.71 1487.82 1332.84C1620.86 1220.97 1676.61 1140.42 1747.52 1234.39C1818.43 1328.36 1893.12 1346.01 1964.77 1299.51C2022.09 1262.31 2047.55 1249.3 2053.11 1247.44C2067.82 1240.14 2111.89 1231.13 2170.51 1253.48" stroke="url(#paint10_linear_3311_2)"/>
<path opacity="0.22449" d="M94.3066 596.544C158.772 689.172 282.289 738.722 385.153 733.693C438.168 725.09 504.679 707.701 571.291 570.253C670.366 365.818 745.589 414.718 790.884 510.158C836.179 605.597 850.029 744.267 938.403 770.856C1026.78 797.445 1088.63 649.498 1179.9 668.476C1320.31 697.67 1282.93 1027.83 1302.6 1145.95C1322.28 1264.07 1356.62 1437.75 1489.19 1325.56C1621.75 1213.37 1677.19 1132.73 1748.4 1226.35C1819.62 1319.97 1894.33 1337.34 1965.78 1290.66C2022.94 1253.31 2048.34 1240.22 2053.9 1238.35C2068.57 1231.01 2112.58 1221.86 2171.26 1243.98" stroke="url(#paint11_linear_3311_2)"/>
<path opacity="0.244898" d="M93.7046 594.861C158.47 687.16 282.105 736.231 384.901 730.86C437.859 722.088 504.276 704.494 570.363 566.984C668.658 362.456 744.02 411.043 789.635 506.215C835.249 601.387 849.59 739.844 938.016 766.101C1026.44 792.359 1087.73 644.379 1179.03 663.024C1319.47 691.707 1283.3 1021.6 1303.38 1139.51C1323.47 1257.42 1358.42 1430.78 1490.52 1318.27C1622.62 1205.77 1677.74 1125.04 1749.26 1218.3C1820.77 1311.57 1895.51 1328.67 1966.76 1281.79C2023.75 1244.29 2049.1 1231.14 2054.64 1229.25C2069.28 1221.87 2113.24 1212.58 2171.97 1234.48" stroke="url(#paint12_linear_3311_2)"/>
<path opacity="0.265306" d="M93.1009 593.175C158.166 685.144 281.917 733.737 384.643 728.023C437.544 719.081 503.866 701.283 569.429 563.713C666.944 359.096 742.443 407.37 788.376 502.273C834.31 597.176 849.139 735.418 937.617 761.344C1026.09 787.27 1086.82 639.259 1178.14 657.572C1318.62 685.744 1283.64 1015.36 1304.14 1133.07C1324.64 1250.77 1360.19 1423.8 1491.83 1310.98C1623.46 1198.16 1678.27 1117.34 1750.08 1210.25C1821.9 1303.16 1896.66 1319.99 1967.7 1272.93C2024.54 1235.28 2049.82 1222.05 2055.36 1220.15C2069.97 1212.73 2113.87 1203.3 2172.65 1224.97" stroke="url(#paint13_linear_3311_2)"/>
<path opacity="0.285714" d="M92.4955 591.486C157.858 683.124 281.723 731.238 384.379 725.181C437.223 716.071 503.449 698.069 568.487 560.441C665.223 355.738 740.858 403.697 787.109 498.33C833.36 592.964 848.676 730.99 937.204 756.584C1025.73 782.179 1085.9 634.139 1177.24 652.12C1317.75 679.78 1283.97 1009.12 1304.88 1126.62C1325.79 1244.11 1361.95 1416.81 1493.11 1303.68C1624.28 1190.55 1678.77 1109.64 1750.88 1202.19C1823 1294.75 1897.78 1311.3 1968.62 1264.06C2025.3 1226.26 2050.52 1212.96 2056.05 1211.04C2070.62 1203.58 2114.47 1194.02 2173.29 1215.46" stroke="url(#paint14_linear_3311_2)"/>
<path opacity="0.306122" d="M91.8845 589.794C157.543 681.099 281.52 728.735 384.105 722.336C436.89 713.057 503.02 694.851 567.535 557.168C663.492 352.382 739.262 400.026 785.829 494.388C832.396 588.751 848.198 726.56 936.775 751.822C1025.35 777.085 1084.96 629.018 1176.32 646.667C1316.87 673.816 1284.28 1002.88 1305.6 1120.16C1326.92 1237.44 1363.67 1409.81 1494.37 1296.37C1625.07 1182.93 1679.25 1101.93 1751.65 1194.13C1824.06 1286.33 1898.87 1302.61 1969.51 1255.18C2026.02 1217.23 2051.18 1203.87 2056.7 1201.93C2071.24 1194.43 2115.04 1184.73 2173.91 1205.95" stroke="url(#paint15_linear_3311_2)"/>
<path opacity="0.326531" d="M91.2756 588.099C157.229 679.07 281.316 726.227 383.829 719.487C436.555 710.04 502.588 691.631 566.58 553.893C661.759 349.027 737.662 396.356 784.544 490.447C831.425 584.537 847.713 722.127 936.337 747.057C1024.96 771.988 1084.02 623.897 1175.39 641.213C1315.96 667.852 1284.57 996.632 1306.3 1113.7C1328.03 1230.76 1365.38 1402.8 1495.61 1289.05C1625.84 1175.31 1679.7 1094.22 1752.4 1186.06C1825.11 1277.9 1899.94 1293.91 1970.37 1246.29C2026.72 1208.2 2051.82 1194.77 2057.33 1192.81C2071.84 1185.27 2115.58 1175.43 2174.49 1196.43" stroke="url(#paint16_linear_3311_2)"/>
<path opacity="0.346939" d="M90.6651 586.4C156.911 677.038 281.107 723.715 383.546 716.634C436.213 707.019 502.148 688.407 565.617 550.618C660.019 345.674 736.055 392.688 783.25 486.505C830.444 580.323 847.215 717.691 935.886 742.29C1024.56 766.889 1083.05 618.775 1174.45 635.76C1315.05 661.888 1284.84 990.379 1306.98 1107.23C1329.12 1224.08 1367.06 1395.78 1496.82 1281.73C1626.59 1167.68 1680.13 1086.51 1753.12 1177.99C1826.12 1269.47 1900.97 1285.2 1971.2 1237.41C2027.39 1199.17 2052.43 1185.67 2057.93 1183.69C2072.4 1176.11 2116.09 1166.13 2175.05 1186.9" stroke="url(#paint17_linear_3311_2)"/>
<path opacity="0.367347" d="M90.0528 584.698C156.59 675.001 280.893 721.198 383.257 713.777C435.865 703.994 501.702 685.18 564.648 547.341C658.273 342.323 734.44 389.021 781.947 482.564C829.453 576.108 846.706 713.253 935.422 737.521C1024.14 761.788 1082.08 613.653 1173.49 630.306C1314.11 655.924 1285.09 984.121 1307.64 1100.75C1330.18 1217.39 1368.72 1388.76 1498.01 1274.4C1627.31 1160.04 1680.53 1078.79 1753.82 1169.91C1827.11 1261.03 1901.98 1276.49 1972.01 1228.51C2028.03 1190.13 2053.01 1176.56 2058.5 1174.57C2072.94 1166.94 2116.56 1156.83 2175.57 1177.38" stroke="url(#paint18_linear_3311_2)"/>
<path opacity="0.387755" d="M89.4388 582.993C156.266 672.959 280.673 718.678 382.962 710.917C435.509 700.966 501.247 681.95 563.672 544.063C656.52 338.973 732.817 385.355 780.635 478.624C828.452 571.893 846.186 708.813 934.945 732.749C1023.7 756.684 1081.09 608.531 1172.52 624.852C1313.16 649.959 1285.33 977.859 1308.28 1094.27C1331.23 1210.69 1370.36 1381.72 1499.18 1267.06C1628 1152.4 1680.91 1071.06 1754.49 1161.82C1828.07 1252.59 1902.96 1267.77 1972.78 1219.61C2028.64 1181.09 2053.56 1167.44 2059.04 1165.44C2073.44 1157.78 2117.01 1147.53 2176.07 1167.84" stroke="url(#paint19_linear_3311_2)"/>
<path opacity="0.408163" d="M88.8231 581.284C155.939 670.914 280.449 716.153 382.661 708.052C435.147 697.934 500.786 678.717 562.689 540.784C654.762 335.626 731.187 381.691 779.314 474.684C827.441 567.676 845.654 704.371 934.455 727.975C1023.26 751.578 1080.09 603.408 1171.53 619.398C1312.2 643.995 1285.54 971.592 1308.9 1087.79C1332.25 1203.99 1371.97 1374.68 1500.32 1259.71C1628.67 1144.75 1681.27 1063.33 1755.14 1153.73C1829 1244.13 1903.91 1259.05 1973.53 1210.71C2029.22 1172.04 2054.08 1158.33 2059.55 1156.31C2073.92 1148.6 2117.43 1138.22 2176.53 1158.31" stroke="url(#paint20_linear_3311_2)"/>
<path opacity="0.428571" d="M88.2055 579.573C155.608 668.865 280.219 713.623 382.353 705.184C434.778 694.898 500.317 675.481 561.699 537.503C652.996 332.28 729.549 378.028 777.984 470.744C826.419 563.46 845.11 699.926 933.953 723.198C1022.8 746.47 1079.07 598.286 1170.52 613.944C1311.21 638.031 1285.74 965.322 1309.49 1081.3C1333.25 1197.27 1373.56 1367.62 1501.44 1252.36C1629.32 1137.1 1681.6 1055.6 1755.75 1145.64C1829.91 1235.68 1904.83 1250.32 1974.24 1201.8C2029.77 1162.99 2054.57 1149.21 2060.03 1147.17C2074.37 1139.43 2117.82 1128.91 2176.96 1148.77" stroke="url(#paint21_linear_3311_2)"/>
<path opacity="0.44898" d="M87.5862 577.858C155.274 666.811 279.985 711.09 382.039 702.311C434.403 691.86 499.84 672.242 560.702 534.222C651.225 328.936 727.904 374.367 776.645 466.805C825.387 559.242 844.554 695.479 933.437 718.42C1022.32 741.36 1078.04 593.163 1169.51 608.49C1310.21 632.067 1285.92 959.048 1310.07 1074.8C1334.23 1190.55 1375.13 1360.56 1502.54 1245C1629.95 1129.44 1681.91 1047.86 1756.35 1137.54C1830.78 1227.22 1905.72 1241.58 1974.93 1192.89C2030.29 1153.93 2055.03 1140.08 2060.48 1138.03C2074.78 1130.25 2118.18 1119.59 2177.36 1139.23" stroke="url(#paint22_linear_3311_2)"/>
<path opacity="0.469388" d="M86.9651 576.14C154.937 664.754 279.745 708.552 381.719 699.435C434.02 688.817 499.357 668.999 559.698 530.94C649.448 325.593 726.251 370.708 775.298 462.866C824.344 555.025 843.987 691.03 932.909 713.639C1021.83 736.247 1077 588.04 1168.47 603.035C1309.2 626.103 1286.07 952.769 1310.63 1068.3C1335.19 1183.83 1376.67 1353.49 1503.61 1237.63C1630.54 1121.78 1682.19 1040.12 1756.91 1129.44C1831.63 1218.75 1906.59 1232.84 1975.59 1183.97C2030.78 1144.87 2055.46 1130.95 2060.91 1128.88C2075.17 1121.06 2118.51 1110.27 2177.73 1129.68" stroke="url(#paint23_linear_3311_2)"/>
<path opacity="0.489796" d="M86.3422 574.419C154.596 662.692 279.5 706.01 381.393 696.556C433.631 685.771 498.865 665.754 558.687 527.656C647.664 322.253 724.59 367.049 773.941 458.928C823.292 550.806 843.409 686.579 932.368 708.856C1021.33 731.132 1075.94 582.917 1167.43 597.581C1308.16 620.139 1286.21 946.486 1311.17 1061.79C1336.12 1177.1 1378.19 1346.41 1504.65 1230.26C1631.12 1114.12 1682.45 1032.38 1757.45 1121.33C1832.45 1210.28 1907.42 1224.09 1976.22 1175.04C2031.25 1135.8 2055.87 1121.82 2061.3 1119.74C2075.53 1111.87 2118.81 1100.95 2178.07 1120.13" stroke="url(#paint24_linear_3311_2)"/>
<path opacity="0.510204" d="M85.7174 572.695C154.252 660.627 279.25 703.464 381.06 693.672C433.234 682.722 498.367 662.506 557.669 524.372C645.873 318.915 722.922 363.393 772.576 454.99C822.229 546.588 842.818 682.126 931.814 704.071C1020.81 726.016 1074.87 577.795 1166.36 592.127C1307.11 614.176 1286.33 940.2 1311.69 1055.28C1337.04 1170.36 1379.69 1339.32 1505.68 1222.88C1631.67 1106.44 1682.69 1024.63 1757.97 1113.21C1833.25 1201.8 1908.23 1215.34 1976.82 1166.12C2031.68 1126.74 2056.24 1112.69 2061.66 1110.58C2075.86 1102.68 2119.07 1091.62 2178.38 1110.58" stroke="url(#paint25_linear_3311_2)"/>
<path opacity="0.530612" d="M85.0909 570.967C153.905 658.557 278.994 700.914 380.721 690.785C432.831 679.67 497.861 659.255 556.644 521.086C644.077 315.578 721.247 359.738 771.201 451.053C821.156 542.369 842.216 677.671 931.247 699.284C1020.28 720.897 1073.79 572.672 1165.29 586.673C1306.05 608.213 1286.43 933.91 1312.18 1048.76C1337.93 1163.61 1381.16 1332.22 1506.68 1215.49C1632.19 1098.77 1682.9 1016.88 1758.46 1105.1C1834.01 1193.31 1909.01 1206.58 1977.39 1157.18C2032.09 1117.66 2056.58 1103.55 2061.99 1101.43C2076.15 1093.49 2119.31 1082.29 2178.66 1101.03" stroke="url(#paint26_linear_3311_2)"/>
<path opacity="0.55102" d="M84.4664 569.237C153.558 656.483 278.737 698.359 380.379 687.894C432.425 676.614 497.351 656.001 555.616 517.8C642.278 312.244 719.567 356.085 769.822 447.117C820.076 538.15 841.607 673.214 930.671 694.495C1019.74 715.777 1072.69 567.549 1164.2 581.22C1304.97 602.25 1286.52 927.616 1312.66 1042.24C1338.81 1156.86 1382.61 1325.11 1507.65 1208.1C1632.7 1091.09 1683.09 1009.12 1758.92 1096.97C1834.76 1184.82 1909.76 1197.82 1977.93 1148.25C2032.47 1108.59 2056.9 1094.41 2062.3 1092.27C2076.43 1084.29 2119.52 1072.96 2178.91 1091.47" stroke="url(#paint27_linear_3311_2)"/>
<path opacity="0.571429" d="M83.8323 567.503C153.2 654.406 278.468 695.801 380.023 685C432.005 673.555 496.826 652.745 554.574 514.513C640.465 308.911 717.873 352.433 768.426 443.182C818.979 533.93 840.977 668.755 930.075 689.704C1019.17 710.654 1071.58 562.427 1163.09 575.767C1303.86 596.288 1286.58 921.318 1313.12 1035.71C1339.65 1150.1 1384.03 1318 1508.6 1200.7C1633.17 1083.4 1683.24 1001.37 1759.35 1088.85C1835.46 1176.33 1910.48 1189.05 1978.44 1139.31C2032.81 1099.51 2057.18 1085.26 2062.57 1083.11C2076.66 1075.09 2119.7 1063.63 2179.12 1081.91" stroke="url(#paint28_linear_3311_2)"/>
<path opacity="0.591837" d="M83.2041 565.766C152.846 652.324 278.2 693.238 379.669 682.102C431.585 670.492 496.301 649.485 553.532 511.225C638.654 305.58 716.179 348.784 767.029 439.247C817.879 529.71 840.344 664.294 929.473 684.912C1018.6 705.53 1070.46 557.305 1161.97 570.314C1302.75 590.327 1286.63 915.017 1313.56 1029.18C1340.49 1143.34 1385.44 1310.88 1509.53 1193.29C1633.62 1075.71 1683.38 993.604 1759.77 1080.72C1836.15 1167.83 1911.18 1180.28 1978.93 1130.36C2033.13 1090.43 2057.44 1076.11 2062.82 1073.95C2076.87 1065.89 2119.85 1054.29 2179.3 1072.35" stroke="url(#paint29_linear_3311_2)"/>
<path opacity="0.612245" d="M82.5701 564.027C152.485 650.238 277.924 690.671 379.305 679.2C431.154 667.426 495.766 646.223 552.479 507.936C636.833 302.252 714.473 345.135 765.619 435.313C816.765 525.49 839.696 659.831 928.855 680.117C1018.01 700.404 1069.32 552.183 1160.84 564.862C1301.62 584.366 1286.65 908.713 1313.97 1022.64C1341.29 1136.57 1386.82 1303.74 1510.43 1185.88C1634.05 1068.02 1683.5 985.84 1760.15 1072.58C1836.81 1159.33 1911.84 1171.5 1979.38 1121.41C2033.42 1081.34 2057.66 1066.96 2063.03 1064.78C2077.05 1056.68 2119.97 1044.95 2179.46 1062.78" stroke="url(#paint30_linear_3311_2)"/>
<path opacity="0.632653" d="M81.9303 562.284C152.117 648.149 277.638 688.101 378.93 676.295C430.713 664.357 495.218 642.958 551.415 504.646C635.001 298.925 712.756 341.489 764.196 431.379C815.636 521.27 839.032 655.366 928.219 675.321C1017.41 695.276 1068.16 547.061 1159.68 559.41C1300.47 578.406 1286.65 902.405 1314.36 1016.1C1342.07 1129.79 1388.17 1296.61 1511.31 1178.46C1634.45 1060.32 1683.58 978.072 1760.51 1064.45C1837.43 1150.82 1912.47 1162.72 1979.8 1112.46C2033.67 1072.25 2057.85 1057.81 2063.21 1055.61C2077.2 1047.48 2120.05 1035.61 2179.58 1053.21" stroke="url(#paint31_linear_3311_2)"/>
<path opacity="0.653061" d="M81.2926 560.538C151.749 646.055 277.351 685.526 378.553 673.386C430.269 661.285 494.667 639.69 550.349 501.355C633.168 295.601 711.036 337.844 762.769 427.447C814.502 517.049 838.36 650.9 927.575 670.523C1016.79 690.147 1067 541.94 1158.52 553.958C1299.3 572.447 1286.64 896.093 1314.74 1009.55C1342.84 1123.01 1389.5 1289.46 1512.16 1171.04C1634.83 1052.61 1683.64 970.301 1760.84 1056.3C1838.03 1142.31 1913.08 1153.94 1980.2 1103.51C2033.9 1063.16 2058.02 1048.65 2063.37 1046.44C2077.32 1038.26 2120.11 1026.27 2179.67 1043.64" stroke="url(#paint32_linear_3311_2)"/>
<path opacity="0.673469" d="M80.653 558.789C151.377 643.958 277.059 682.947 378.169 670.474C429.818 658.21 494.109 636.419 549.275 498.064C631.328 292.278 709.307 334.202 761.332 423.515C813.357 512.829 837.676 646.432 926.918 665.724C1016.16 685.016 1065.82 536.819 1157.34 548.507C1298.12 566.488 1286.61 889.778 1315.09 1003C1343.58 1116.22 1390.81 1282.3 1512.99 1163.61C1635.18 1044.91 1683.68 962.527 1761.14 1048.16C1838.6 1133.79 1913.66 1145.15 1980.57 1094.55C2034.1 1054.07 2058.16 1039.49 2063.49 1037.26C2077.41 1029.05 2120.14 1016.92 2179.73 1034.07" stroke="url(#paint33_linear_3311_2)"/>
<path opacity="0.693878" d="M80.0114 557.037C151.002 641.857 276.762 680.365 377.779 667.558C429.359 655.131 493.543 633.146 548.195 494.772C629.482 288.958 707.572 330.561 759.887 419.584C812.202 508.608 836.981 641.962 926.248 660.923C1015.52 679.883 1064.63 531.698 1156.14 543.057C1296.92 560.53 1286.55 883.461 1315.43 996.444C1344.3 1109.43 1392.09 1275.14 1513.8 1156.17C1635.51 1037.2 1683.7 954.751 1761.42 1040.01C1839.15 1125.27 1914.2 1136.35 1980.91 1085.58C2034.27 1044.97 2058.26 1030.33 2063.59 1028.08C2077.47 1019.84 2120.13 1007.57 2179.76 1024.5" stroke="url(#paint34_linear_3311_2)"/>
<path opacity="0.714286" d="M79.3679 555.281C150.624 639.752 276.459 677.778 377.382 664.639C428.894 652.05 492.97 629.87 547.107 491.479C627.63 285.64 705.829 326.921 758.433 415.655C811.036 504.388 836.274 637.491 925.565 656.12C1014.86 674.749 1063.43 526.579 1154.93 537.608C1295.71 554.574 1286.48 877.14 1315.74 989.883C1345 1102.63 1393.35 1267.97 1514.58 1148.73C1635.81 1029.48 1683.69 946.972 1761.68 1031.86C1839.66 1116.74 1914.72 1127.55 1981.21 1076.62C2034.41 1035.87 2058.34 1021.16 2063.66 1018.9C2077.5 1010.62 2120.1 998.224 2179.75 1014.92" stroke="url(#paint35_linear_3311_2)"/>
<path opacity="0.734694" d="M78.7264 553.523C150.246 637.643 276.154 675.188 376.983 661.717C428.426 648.965 492.393 626.592 546.017 488.185C625.775 282.323 704.082 323.284 756.974 411.726C809.865 500.167 835.559 633.018 924.873 651.316C1014.19 669.614 1062.21 521.459 1153.72 532.159C1294.48 548.618 1286.4 870.815 1316.04 983.318C1345.68 1095.82 1394.59 1260.79 1515.34 1141.28C1636.09 1021.76 1683.66 939.19 1761.91 1023.7C1840.16 1108.21 1915.22 1118.75 1981.5 1067.65C2034.52 1026.77 2058.39 1011.99 2063.7 1009.72C2077.5 1001.4 2120.04 988.872 2179.73 1005.34" stroke="url(#paint36_linear_3311_2)"/>
<path opacity="0.755102" d="M78.0791 551.762C149.86 635.53 275.841 672.593 376.574 658.791C427.947 645.877 491.804 623.311 544.915 484.891C623.911 279.009 702.325 319.649 755.502 407.798C808.679 495.947 834.829 628.544 924.165 646.511C1013.5 664.477 1060.98 516.341 1152.48 526.711C1293.23 542.663 1286.29 864.488 1316.31 976.749C1346.33 1089.01 1395.8 1253.61 1516.08 1133.82C1636.35 1014.04 1683.6 931.406 1762.11 1015.54C1840.62 1099.67 1915.68 1109.94 1981.75 1058.67C2034.6 1017.66 2058.41 1002.83 2063.71 1000.53C2077.48 992.176 2119.95 979.519 2179.66 995.761" stroke="url(#paint37_linear_3311_2)"/>
<path opacity="0.77551" d="M77.4258 549.998C149.467 633.413 275.518 669.995 376.154 655.861C427.458 642.787 491.205 620.028 543.803 481.596C622.036 275.698 700.555 316.015 754.017 403.871C807.479 491.726 834.083 624.068 923.439 641.704C1012.8 659.339 1059.73 511.223 1151.22 521.263C1291.97 536.71 1286.16 858.158 1316.56 970.176C1346.96 1082.19 1396.99 1246.42 1516.78 1126.36C1636.58 1006.31 1683.51 923.619 1762.28 1007.38C1841.05 1091.13 1916.11 1101.13 1981.97 1049.7C2034.65 1008.55 2058.39 993.655 2063.68 991.348C2077.41 982.952 2119.82 970.164 2179.56 986.179" stroke="url(#paint38_linear_3311_2)"/>
<path opacity="0.795918" d="M76.7784 548.23C149.079 631.293 275.197 667.393 375.736 652.929C426.969 639.693 490.605 616.742 542.691 478.301C620.163 272.388 698.787 312.384 752.532 399.945C806.277 487.506 833.333 619.591 922.709 636.895C1012.08 654.199 1058.48 506.106 1149.96 515.817C1290.69 530.757 1286.01 851.826 1316.79 963.598C1347.58 1075.37 1398.15 1239.22 1517.47 1118.9C1636.78 998.583 1683.41 915.83 1762.43 999.211C1841.46 1082.59 1916.52 1092.31 1982.16 1040.72C2034.68 999.445 2058.36 984.481 2063.63 982.159C2077.33 973.726 2119.67 960.807 2179.44 976.596" stroke="url(#paint39_linear_3311_2)"/>
<path opacity="0.816327" d="M76.1252 546.46C148.683 629.169 274.867 664.787 375.307 649.993C426.469 636.596 489.994 613.453 541.569 475.005C618.28 269.081 697.007 308.754 751.034 396.02C805.061 483.286 832.568 615.113 921.961 632.086C1011.35 649.059 1057.2 500.989 1148.68 510.372C1289.39 524.806 1285.85 845.49 1317.01 957.017C1348.17 1068.54 1399.3 1232.01 1518.13 1111.43C1636.97 990.85 1683.28 908.039 1762.56 991.042C1841.84 1074.05 1916.9 1083.5 1982.33 1031.74C2034.67 990.333 2058.28 975.306 2063.55 972.969C2077.21 964.499 2119.49 951.45 2179.29 967.012" stroke="url(#paint40_linear_3311_2)"/>
<path opacity="0.836735" d="M75.466 544.687C148.279 627.041 274.528 662.178 374.868 647.054C425.958 633.496 489.372 610.162 540.436 471.708C616.387 265.775 695.215 305.127 749.523 392.096C803.83 479.066 831.787 610.633 921.197 627.275C1010.61 643.917 1055.91 495.873 1147.38 504.928C1288.08 518.856 1285.66 839.152 1317.19 950.431C1348.73 1061.71 1400.41 1224.79 1518.76 1103.95C1637.12 983.114 1683.12 900.246 1762.65 982.871C1842.18 1065.5 1917.24 1074.67 1982.46 1022.75C2034.63 981.219 2058.18 966.13 2063.43 963.777C2077.06 955.27 2119.27 942.091 2179.09 957.426" stroke="url(#paint41_linear_3311_2)"/>
<path opacity="0.857143" d="M74.8088 542.911C147.876 624.909 274.188 659.564 374.426 644.111C425.444 630.394 488.746 606.869 539.3 468.411C614.492 262.473 693.42 301.501 748.007 388.174C802.593 474.846 830.998 606.151 920.424 622.463C1009.85 638.774 1054.62 490.759 1146.07 499.484C1286.75 512.907 1285.45 832.811 1317.36 943.842C1349.27 1054.87 1401.5 1217.57 1519.38 1096.47C1637.25 975.374 1682.93 892.45 1762.72 974.696C1842.5 1056.94 1917.56 1065.85 1982.56 1013.77C2034.56 972.104 2058.05 956.951 2063.29 954.583C2076.88 946.04 2119.03 932.731 2178.88 947.839" stroke="url(#paint42_linear_3311_2)"/>
<path opacity="0.877551" d="M74.1495 541.132C147.469 622.774 273.842 656.947 373.978 641.166C424.923 627.288 488.112 603.573 538.156 465.113C612.591 259.172 691.618 297.878 746.482 384.252C801.346 470.627 830.198 601.669 919.638 617.65C1009.08 633.63 1053.3 485.645 1144.74 494.042C1285.4 506.96 1285.23 826.468 1317.51 937.249C1349.8 1048.03 1402.57 1210.35 1519.96 1088.99C1637.36 967.631 1682.73 884.653 1762.76 966.519C1842.8 1048.38 1917.85 1057.02 1982.64 1004.78C2034.47 962.986 2057.89 947.772 2063.12 945.388C2076.68 936.808 2118.75 923.37 2178.63 938.252" stroke="url(#paint43_linear_3311_2)"/>
<path opacity="0.897959" d="M73.4882 539.349C147.058 620.635 273.49 654.326 373.523 638.217C424.396 624.18 487.471 600.275 537.006 461.815C610.684 255.874 689.809 294.257 744.949 380.332C800.089 466.408 829.386 597.185 918.839 612.835C1008.29 628.485 1051.98 480.532 1143.4 488.601C1284.04 501.015 1284.98 820.122 1317.64 930.652C1350.3 1041.18 1403.62 1203.11 1520.53 1081.5C1637.44 959.886 1682.5 876.854 1762.78 958.339C1843.07 1039.82 1918.11 1048.19 1982.68 995.788C2034.34 953.867 2057.7 938.59 2062.92 936.192C2076.44 927.576 2118.45 914.008 2178.35 928.663" stroke="url(#paint44_linear_3311_2)"/>
<path opacity="0.918367" d="M72.8288 537.564C146.648 618.492 273.137 651.702 373.066 635.265C423.865 621.069 486.826 596.975 535.853 458.517C608.775 252.577 687.996 290.637 743.411 376.413C798.826 462.189 828.566 592.701 918.031 608.02C1007.5 623.339 1050.64 475.42 1142.05 483.161C1282.66 495.071 1284.73 813.774 1317.76 924.051C1350.78 1034.33 1404.64 1195.87 1521.07 1074C1637.5 952.137 1682.25 869.053 1762.78 950.157C1843.31 1031.26 1918.35 1039.35 1982.71 986.794C2034.19 944.747 2057.49 929.408 2062.7 926.994C2076.18 918.342 2118.12 904.645 2178.04 919.074" stroke="url(#paint45_linear_3311_2)"/>
<path opacity="0.938776" d="M72.1595 535.776C146.226 616.345 272.771 649.073 372.594 632.31C423.319 617.955 486.166 593.672 534.685 455.217C606.852 249.284 686.168 287.02 741.856 372.495C797.545 457.971 827.727 588.215 917.203 603.204C1006.68 618.193 1049.29 470.309 1140.68 477.723C1281.27 489.128 1284.44 807.423 1317.84 917.447C1351.24 1027.47 1405.63 1188.62 1521.58 1066.5C1637.53 944.385 1681.97 861.25 1762.74 941.972C1843.52 1022.69 1918.55 1030.52 1982.69 977.798C2034.01 935.625 2057.24 920.224 2062.44 917.795C2075.88 909.107 2117.75 895.281 2177.69 909.484" stroke="url(#paint46_linear_3311_2)"/>
<path opacity="0.959184" d="M71.496 533.985C145.809 614.195 272.407 646.442 372.123 629.352C422.774 614.838 485.506 590.367 533.518 451.918C604.93 245.992 684.34 283.405 740.3 368.579C796.261 453.753 826.884 583.728 916.369 598.386C1005.85 613.045 1047.93 465.199 1139.3 472.286C1279.86 483.187 1284.15 801.07 1317.91 910.84C1351.68 1020.61 1406.61 1181.37 1522.08 1059C1637.54 936.631 1681.67 853.446 1762.69 933.785C1843.7 1014.12 1918.72 1021.67 1982.65 968.801C2033.8 926.502 2056.96 911.039 2062.15 908.595C2075.56 899.871 2117.36 885.917 2177.32 899.893" stroke="url(#paint47_linear_3311_2)"/>
<path opacity="0.979592" d="M70.8266 532.192C145.384 612.041 272.034 643.806 371.643 626.39C422.218 611.718 484.834 587.06 532.34 448.618C602.999 242.703 682.501 279.793 738.732 364.664C794.963 449.535 826.025 579.24 915.518 593.568C1005.01 607.897 1046.55 460.091 1137.9 466.85C1278.43 477.248 1283.83 794.716 1317.96 904.229C1352.09 1013.74 1407.56 1174.1 1522.54 1051.49C1637.53 928.874 1681.34 845.64 1762.6 925.596C1843.86 1005.55 1918.87 1012.83 1982.59 959.801C2033.56 917.377 2056.66 901.854 2061.83 899.395C2075.2 890.635 2116.94 876.553 2176.92 890.302" stroke="url(#paint48_linear_3311_2)"/>
<path opacity="0.01" d="M186.485 614.835C276.272 684.964 409.68 695.624 506.804 659.734C555.045 635.425 613.576 598.547 635.952 445.54C669.235 217.962 756.135 242.561 828.387 321.191C900.639 399.821 955.79 529.74 1048.57 528.796C1141.34 527.852 1155.98 366.129 1249.24 356.95C1392.7 342.831 1456.54 673.378 1511.07 781.667C1565.6 889.955 1650.97 1047.55 1744.23 899.078C1837.48 750.604 1866.29 655.903 1962.85 724.951C2059.41 794 2136.3 788.269 2190.72 721.57C2234.25 668.211 2254.66 647.896 2259.42 644.408C2271.28 632.885 2310.73 610.762 2373.67 614.459" stroke="url(#paint49_linear_3311_2)"/>
<path opacity="0.0204082" d="M184.069 613.189C273.559 683.538 406.864 694.635 504.069 659.114C552.374 634.996 611.009 598.359 633.927 445.606C668.014 218.406 754.783 243.269 826.716 322.051C898.649 400.832 953.304 530.785 1046.04 530.154C1138.77 529.524 1153.99 368.039 1247.23 359.186C1390.67 345.566 1453.29 675.941 1507.4 784.286C1561.52 892.632 1646.28 1050.33 1740.02 902.345C1833.76 754.36 1862.9 659.866 1959.17 729.159C2055.43 798.452 2132.3 792.987 2186.93 726.55C2230.64 673.4 2251.11 653.177 2255.88 649.709C2267.78 638.239 2307.28 616.275 2370.18 620.18" stroke="url(#paint50_linear_3311_2)"/>
<path opacity="0.0408163" d="M181.655 611.539C270.848 682.108 404.047 693.641 501.332 658.489C549.701 634.562 608.44 598.166 631.897 445.669C666.786 218.851 753.423 243.977 825.037 322.908C896.651 401.84 950.811 531.824 1043.5 531.507C1136.19 531.19 1151.98 369.946 1245.21 361.417C1388.63 348.297 1450.03 678.495 1503.72 786.896C1557.42 895.297 1641.57 1053.1 1735.8 905.601C1830.03 758.105 1859.5 663.82 1955.46 733.356C2051.43 802.892 2128.28 797.693 2183.13 731.518C2227.01 678.577 2247.54 658.447 2252.32 654.999C2264.25 643.583 2303.82 621.778 2366.67 625.89" stroke="url(#paint51_linear_3311_2)"/>
<path opacity="0.0612245" d="M179.243 609.886C268.137 680.672 401.23 692.641 498.594 657.859C547.025 634.122 605.866 597.967 629.862 445.729C665.551 219.295 752.055 244.683 823.349 323.764C894.644 402.844 948.309 532.858 1040.95 532.854C1133.6 532.85 1149.97 371.848 1243.18 363.644C1386.57 351.023 1446.75 681.04 1500.03 789.495C1553.31 897.95 1636.85 1055.85 1731.57 908.843C1826.29 761.838 1856.08 667.764 1951.74 737.542C2047.41 807.319 2124.25 802.386 2179.31 736.473C2223.35 683.742 2243.95 663.705 2248.74 660.278C2260.7 648.915 2300.33 627.269 2363.14 631.588" stroke="url(#paint52_linear_3311_2)"/>
<path opacity="0.0816327" d="M176.832 608.232C265.428 679.235 398.412 691.638 495.855 657.226C544.347 633.681 603.29 597.766 627.822 445.789C664.309 219.741 750.679 245.392 821.654 324.62C892.629 403.848 945.8 533.89 1038.4 534.199C1131 534.507 1147.94 373.75 1241.13 365.87C1384.51 353.748 1443.47 683.58 1496.33 792.087C1549.19 900.594 1632.12 1058.59 1727.32 912.075C1822.52 765.563 1852.64 671.7 1948.01 741.719C2043.38 811.737 2120.19 807.069 2175.46 741.419C2219.67 688.899 2240.33 668.955 2245.14 665.548C2257.13 654.239 2296.82 632.752 2359.58 637.278" stroke="url(#paint53_linear_3311_2)"/>
<path opacity="0.102041" d="M174.423 606.572C262.72 677.791 395.595 690.629 493.113 656.586C541.667 633.233 600.71 597.559 625.776 445.844C663.06 220.186 749.295 246.098 819.95 325.472C890.605 404.846 943.282 534.915 1035.84 535.536C1128.39 536.157 1145.9 375.647 1239.08 368.091C1382.42 356.467 1440.17 686.109 1492.61 794.666C1545.06 903.224 1627.38 1061.31 1723.06 915.293C1818.74 769.275 1849.18 675.625 1944.25 745.883C2039.32 816.141 2116.12 811.737 2171.6 746.352C2215.98 694.043 2236.7 674.192 2241.51 670.806C2253.54 659.55 2293.29 638.223 2356 642.955" stroke="url(#paint54_linear_3311_2)"/>
<path opacity="0.122449" d="M172.015 604.909C260.013 676.341 392.777 689.613 490.37 655.94C538.984 632.778 598.127 597.347 623.727 445.895C661.803 220.63 747.904 246.803 818.239 326.322C888.574 405.841 940.757 535.934 1033.26 536.867C1125.77 537.8 1143.85 377.539 1237.01 370.306C1380.32 359.18 1436.86 688.628 1488.89 797.235C1540.92 905.841 1622.63 1064.02 1718.79 918.498C1814.95 772.976 1845.71 679.539 1940.48 750.035C2035.25 820.531 2112.03 816.392 2167.71 751.271C2212.26 699.175 2233.04 679.417 2237.87 676.051C2249.93 664.849 2289.73 643.682 2352.4 648.62" stroke="url(#paint55_linear_3311_2)"/>
<path opacity="0.142857" d="M169.609 603.242C257.307 674.888 389.959 688.593 487.625 655.29C536.299 632.32 595.54 597.131 621.672 445.945C660.54 221.075 746.504 247.508 816.519 327.171C886.534 406.834 938.224 536.949 1030.68 538.194C1123.14 539.438 1141.78 379.428 1234.93 372.519C1378.21 361.891 1433.53 691.14 1485.15 799.794C1536.76 908.448 1617.87 1066.72 1714.5 921.691C1811.14 776.666 1842.22 683.443 1936.69 754.177C2031.16 824.91 2107.92 821.036 2163.81 756.18C2208.52 704.296 2229.36 684.632 2234.2 681.286C2246.3 670.139 2286.15 649.13 2348.77 654.275" stroke="url(#paint56_linear_3311_2)"/>
<path opacity="0.163265" d="M167.204 601.573C254.603 673.431 387.14 687.568 484.879 654.635C533.611 631.857 592.95 596.91 619.612 445.991C659.269 221.52 745.096 248.213 814.791 328.018C884.486 407.823 935.684 537.959 1028.09 539.515C1120.5 541.071 1139.71 381.313 1232.83 374.728C1376.09 364.597 1430.2 693.643 1481.4 802.343C1532.6 911.042 1613.09 1069.4 1710.2 924.871C1807.31 780.345 1838.71 687.338 1932.88 758.308C2027.06 829.277 2103.79 825.666 2159.88 761.077C2204.76 709.405 2225.66 689.836 2230.51 686.51C2242.64 675.417 2282.55 654.568 2345.12 659.919" stroke="url(#paint57_linear_3311_2)"/>
<path opacity="0.183673" d="M164.801 599.9C251.899 671.969 384.322 686.538 482.131 653.975C530.922 631.389 590.357 596.684 617.548 446.035C657.991 221.965 743.681 248.916 813.055 328.863C882.43 408.809 933.136 538.964 1025.49 540.831C1117.85 542.698 1137.62 383.195 1230.73 376.932C1373.95 367.299 1426.85 696.137 1477.63 804.881C1528.42 913.625 1608.31 1072.06 1705.89 928.039C1803.47 784.013 1835.19 691.223 1929.06 762.427C2022.93 833.631 2099.64 830.284 2155.94 765.962C2200.98 714.504 2221.94 695.028 2226.8 691.722C2238.96 680.683 2278.93 659.995 2341.45 665.551" stroke="url(#paint58_linear_3311_2)"/>
<path opacity="0.204082" d="M162.4 598.224C249.197 670.502 381.503 685.503 479.382 653.31C528.23 630.916 587.761 596.454 615.479 446.076C656.706 222.409 742.257 249.619 811.311 329.705C880.365 409.792 930.58 539.963 1022.89 542.141C1115.19 544.319 1135.53 385.073 1228.61 379.133C1371.79 369.997 1423.49 698.623 1473.86 807.409C1524.23 916.196 1603.51 1074.72 1701.56 931.194C1799.61 787.67 1831.65 695.098 1925.22 766.535C2018.79 837.972 2095.47 834.89 2151.97 770.834C2197.18 719.59 2218.2 700.208 2223.06 696.923C2235.27 685.939 2275.29 665.41 2337.76 671.171" stroke="url(#paint59_linear_3311_2)"/>
<path opacity="0.22449" d="M160 596.545C246.496 669.031 378.684 684.462 476.631 652.639C525.535 630.438 585.161 596.219 613.405 446.115C655.414 222.854 740.826 250.321 809.56 330.546C878.293 410.771 928.016 540.958 1020.27 543.446C1112.52 545.934 1133.42 386.947 1226.47 381.33C1369.62 372.69 1420.12 701.099 1470.07 809.927C1520.03 918.755 1598.71 1077.36 1697.22 934.336C1795.74 791.316 1828.09 698.963 1921.36 770.632C2014.63 842.301 2091.28 839.482 2147.99 775.695C2193.36 724.665 2214.44 705.378 2219.31 702.113C2231.55 691.183 2271.62 670.814 2334.04 676.781" stroke="url(#paint60_linear_3311_2)"/>
<path opacity="0.244898" d="M157.602 594.863C243.797 667.555 375.865 683.417 473.878 651.964C522.839 629.955 582.558 595.979 611.326 446.15C654.114 223.299 739.387 251.023 807.8 331.385C876.212 411.748 925.445 541.948 1017.65 544.746C1109.85 547.544 1131.3 388.817 1224.33 383.523C1367.44 375.378 1416.74 703.567 1466.28 812.434C1515.82 921.302 1593.89 1079.98 1692.87 937.466C1791.85 794.951 1824.52 702.817 1917.48 774.717C2010.45 846.617 2087.08 844.062 2143.99 780.543C2189.51 729.728 2210.65 710.535 2215.53 707.291C2227.8 696.415 2267.93 676.207 2330.3 682.378" stroke="url(#paint61_linear_3311_2)"/>
<path opacity="0.265306" d="M155.206 593.179C241.098 666.077 373.046 682.368 471.124 651.286C520.14 629.469 579.952 595.737 609.242 446.184C652.808 223.745 737.94 251.726 806.032 332.224C874.123 412.722 922.866 542.934 1015.01 546.042C1107.16 549.15 1129.17 390.686 1222.17 385.713C1365.24 378.065 1413.34 706.028 1462.47 814.933C1511.59 923.838 1589.06 1082.59 1688.5 940.584C1787.94 798.576 1820.93 706.664 1913.59 778.793C2006.26 850.923 2082.85 848.631 2139.96 785.381C2185.65 734.781 2206.85 715.683 2211.74 712.459C2224.04 701.639 2264.22 681.591 2326.54 687.966" stroke="url(#paint62_linear_3311_2)"/>
<path opacity="0.285714" d="M152.811 591.488C238.401 664.59 370.227 681.31 468.369 650.598C517.439 628.975 577.342 595.485 607.154 446.212C651.494 224.187 736.485 252.424 804.256 333.057C872.026 413.69 920.279 543.911 1012.37 547.328C1104.46 550.745 1127.03 392.546 1220.01 387.896C1363.03 380.742 1409.93 708.476 1458.65 817.418C1507.36 926.359 1584.22 1085.19 1684.12 943.686C1784.02 802.186 1817.32 710.496 1909.68 782.854C2002.04 855.212 2078.61 853.183 2135.92 790.203C2181.76 739.819 2203.02 720.816 2207.92 717.612C2220.26 706.846 2260.49 686.959 2322.75 693.538" stroke="url(#paint63_linear_3311_2)"/>
<path opacity="0.306122" d="M150.419 589.796C235.706 663.101 367.408 680.249 465.612 649.908C514.735 628.477 574.73 595.232 605.06 446.239C650.173 224.631 735.022 253.123 802.472 333.889C869.921 414.656 917.685 544.885 1009.72 548.611C1101.75 552.337 1124.88 394.405 1217.82 390.076C1360.81 383.417 1406.51 710.917 1454.81 819.894C1503.11 928.87 1579.37 1087.77 1679.73 946.777C1780.09 805.786 1813.7 714.32 1905.75 786.905C1997.81 859.49 2074.35 857.723 2131.86 795.014C2177.86 744.846 2199.18 725.938 2204.08 722.755C2216.45 712.044 2256.74 692.318 2318.95 699.101" stroke="url(#paint64_linear_3311_2)"/>
<path opacity="0.326531" d="M148.027 588.1C233.011 661.608 364.588 679.183 462.854 649.213C512.03 627.974 572.114 594.973 602.962 446.263C648.845 225.075 733.551 253.821 800.68 334.72C867.808 415.619 915.084 545.854 1007.06 549.889C1099.03 553.923 1122.71 396.259 1215.63 392.252C1358.57 386.088 1403.08 713.35 1450.97 822.359C1498.86 931.369 1574.51 1090.34 1675.32 949.855C1776.14 809.375 1810.06 718.133 1901.81 790.944C1993.56 863.755 2070.07 862.251 2127.77 799.813C2173.93 749.862 2195.31 731.049 2200.22 727.887C2212.62 717.231 2252.96 697.665 2315.12 704.651" stroke="url(#paint65_linear_3311_2)"/>
<path opacity="0.346939" d="M145.638 586.401C230.318 660.11 361.769 678.112 460.094 648.512C509.322 627.467 569.495 594.71 600.86 446.283C647.51 225.518 732.073 254.518 798.88 335.548C865.687 416.579 912.475 546.817 1004.39 551.16C1096.31 555.504 1120.54 398.11 1213.42 394.424C1356.32 388.754 1399.64 715.773 1447.11 824.814C1494.59 933.856 1569.63 1092.89 1670.9 952.92C1772.17 812.953 1806.4 721.936 1897.85 794.972C1989.3 868.007 2065.78 866.766 2123.67 804.599C2169.99 754.865 2191.42 736.148 2196.34 733.006C2208.78 722.405 2249.16 703 2311.26 710.19" stroke="url(#paint66_linear_3311_2)"/>
<path opacity="0.367347" d="M143.25 584.699C227.627 658.608 358.95 677.036 457.333 647.806C506.612 626.954 566.873 594.442 598.752 446.301C646.168 225.961 730.586 255.214 797.072 336.374C863.558 417.535 909.858 547.776 1001.71 552.427C1093.57 557.078 1118.35 399.956 1211.21 396.591C1354.05 391.415 1396.18 718.187 1443.25 827.259C1490.31 936.33 1564.75 1095.43 1666.47 955.973C1768.19 816.519 1802.73 725.728 1893.87 798.988C1985.02 872.247 2061.46 871.267 2119.55 809.373C2166.02 759.857 2187.51 741.235 2192.44 738.114C2204.91 727.568 2245.35 708.324 2307.39 715.717" stroke="url(#paint67_linear_3311_2)"/>
<path opacity="0.387755" d="M140.864 582.994C224.936 657.101 356.13 675.954 454.57 647.096C503.9 626.437 564.248 594.169 596.64 446.316C644.819 226.404 729.092 255.91 795.256 337.198C861.42 418.487 907.234 548.729 999.03 553.687C1090.83 558.646 1116.15 401.799 1208.98 398.754C1351.77 394.071 1392.72 720.592 1439.37 829.692C1486.02 938.793 1559.86 1097.95 1662.03 959.012C1764.19 820.073 1799.04 729.51 1889.88 802.992C1980.72 876.473 2057.13 875.755 2115.41 814.134C2162.04 764.836 2183.58 746.31 2188.52 743.209C2201.02 732.719 2241.5 713.636 2303.49 721.231" stroke="url(#paint68_linear_3311_2)"/>
<path opacity="0.408163" d="M138.48 581.286C222.247 655.589 353.311 674.868 451.806 646.38C501.186 625.915 561.62 593.892 594.523 446.328C643.463 226.847 727.59 256.604 793.433 338.02C859.275 419.436 904.602 549.676 996.336 554.942C1088.07 560.208 1113.94 403.637 1206.73 400.913C1349.48 396.722 1389.24 722.988 1435.48 832.115C1481.72 941.243 1554.96 1100.46 1657.57 962.038C1760.18 823.616 1795.33 733.282 1885.87 806.984C1976.4 880.686 2052.78 880.23 2111.25 818.882C2158.03 769.803 2179.63 751.373 2184.58 748.293C2197.11 737.858 2237.64 718.936 2299.57 726.734" stroke="url(#paint69_linear_3311_2)"/>
<path opacity="0.428571" d="M136.097 579.574C219.56 654.074 350.492 673.776 449.041 645.659C498.47 625.387 558.989 593.609 592.402 446.337C642.099 227.289 726.08 257.297 791.601 338.839C857.122 420.382 901.963 550.619 993.635 556.191C1085.31 561.764 1111.73 405.471 1204.48 403.067C1347.17 399.369 1385.75 725.375 1431.58 834.528C1477.41 943.681 1550.04 1102.95 1653.1 965.051C1756.16 827.147 1791.61 737.042 1881.84 810.964C1972.07 884.887 2048.41 884.692 2107.07 823.617C2154 774.758 2175.66 756.424 2180.62 753.364C2193.18 742.984 2233.76 724.224 2295.63 732.224" stroke="url(#paint70_linear_3311_2)"/>
<path opacity="0.44898" d="M133.717 577.859C216.874 652.554 347.673 672.679 446.275 644.933C495.752 624.855 556.355 593.323 590.276 446.343C640.729 227.731 724.562 257.989 789.761 339.657C854.961 421.324 899.317 551.556 990.924 557.435C1082.53 563.313 1109.49 407.301 1202.21 405.217C1344.84 402.011 1382.25 727.752 1427.67 836.929C1473.09 946.106 1545.12 1105.43 1648.62 968.051C1752.11 830.667 1787.87 740.792 1877.79 814.933C1967.71 889.074 2044.02 889.14 2102.87 828.34C2149.96 779.7 2171.66 761.463 2176.63 758.424C2189.22 748.099 2229.85 729.5 2291.67 737.702" stroke="url(#paint71_linear_3311_2)"/>
<path opacity="0.469388" d="M131.338 576.141C214.189 651.029 344.854 671.578 443.507 644.203C493.032 624.318 553.717 593.031 588.145 446.346C639.351 228.172 723.037 258.681 787.914 340.471C852.791 422.262 896.663 552.487 988.205 558.672C1079.75 564.857 1107.25 409.127 1199.93 407.362C1342.51 404.647 1378.74 730.121 1423.74 839.32C1468.75 948.52 1540.18 1107.9 1644.12 971.038C1748.06 834.175 1784.12 744.532 1873.73 818.89C1963.35 893.247 2039.61 893.574 2098.66 833.05C2145.89 784.63 2167.65 766.489 2172.63 763.471C2185.25 753.202 2225.93 734.765 2287.68 743.167" stroke="url(#paint72_linear_3311_2)"/>
<path opacity="0.489796" d="M128.961 574.42C211.506 649.5 342.035 670.471 440.738 643.467C490.309 623.775 551.077 592.734 586.009 446.346C637.966 228.613 721.503 259.371 786.059 341.284C850.614 423.197 894.002 553.413 985.478 559.904C1076.95 566.395 1105 410.948 1197.64 409.503C1340.16 407.279 1375.21 732.48 1419.81 841.7C1464.41 950.921 1535.24 1110.35 1639.61 974.011C1743.98 837.671 1780.35 748.26 1869.65 822.834C1958.96 897.408 2035.19 897.996 2094.42 837.747C2141.8 789.548 2163.62 771.503 2168.61 768.506C2181.25 758.292 2221.98 740.017 2283.67 748.62" stroke="url(#paint73_linear_3311_2)"/>
<path opacity="0.510204" d="M126.586 572.698C208.825 647.969 339.216 669.361 437.967 642.728C487.585 623.23 548.434 592.435 583.869 446.345C636.575 229.055 719.962 260.062 784.196 342.096C848.429 424.13 891.334 554.336 982.743 561.132C1074.15 567.928 1102.74 412.767 1195.34 411.641C1337.79 409.908 1371.68 734.832 1415.87 844.072C1460.05 953.311 1530.28 1112.79 1635.09 976.974C1739.9 841.157 1776.56 751.98 1865.56 826.769C1954.56 901.557 2030.75 902.405 2090.16 842.433C2137.7 794.455 2159.57 776.507 2164.56 773.53C2177.24 763.372 2218.01 745.258 2279.64 754.063" stroke="url(#paint74_linear_3311_2)"/>
<path opacity="0.530612" d="M124.212 570.969C206.145 646.43 336.397 668.242 435.196 641.979C484.859 622.676 545.788 592.127 581.724 446.337C635.176 229.494 718.413 260.747 782.324 342.901C846.236 425.055 888.658 555.25 979.999 562.35C1071.34 569.451 1100.46 414.578 1193.02 413.77C1335.42 412.527 1368.13 737.17 1411.91 846.428C1455.69 955.686 1525.32 1115.21 1630.56 979.919C1735.8 844.627 1772.76 755.685 1861.45 830.687C1950.14 905.689 2026.29 906.797 2085.89 847.101C2133.57 799.345 2155.49 781.494 2160.49 778.538C2173.2 768.436 2214.02 750.484 2275.59 759.489" stroke="url(#paint75_linear_3311_2)"/>
<path opacity="0.55102" d="M121.84 569.238C203.466 644.888 333.579 667.12 432.423 641.228C482.131 622.119 543.138 591.816 579.575 446.328C633.77 229.933 716.856 261.434 780.446 343.707C844.035 425.979 885.975 556.159 977.247 563.565C1068.52 570.97 1098.17 416.386 1190.7 415.897C1333.03 415.144 1364.57 739.502 1407.94 848.776C1451.31 958.05 1520.34 1117.62 1626.01 982.853C1731.68 848.087 1768.94 759.381 1857.32 834.595C1945.7 909.81 2021.82 911.177 2081.6 851.759C2129.42 804.225 2151.4 786.47 2156.41 783.535C2169.15 773.49 2210.01 755.699 2271.52 764.904" stroke="url(#paint76_linear_3311_2)"/>
<path opacity="0.571429" d="M119.471 567.505C200.789 643.341 330.76 665.993 429.649 640.472C479.4 621.556 540.486 591.5 577.421 446.315C632.357 230.372 715.292 262.119 778.559 344.509C841.826 426.899 883.285 557.064 974.486 564.773C1065.69 572.483 1095.88 418.19 1188.36 418.019C1330.62 417.755 1361 741.823 1403.96 851.112C1446.93 960.401 1515.36 1120.01 1621.45 985.774C1727.55 851.536 1765.1 763.066 1853.18 838.491C1941.25 913.917 2017.32 915.544 2077.28 856.404C2125.26 809.092 2147.28 791.435 2152.3 788.52C2165.07 778.531 2205.97 760.902 2267.42 770.307" stroke="url(#paint77_linear_3311_2)"/>
<path opacity="0.591837" d="M117.103 565.768C198.113 641.791 327.942 664.861 426.873 639.711C476.668 620.989 537.831 591.18 575.262 446.3C630.936 230.81 713.719 262.804 776.664 345.31C839.609 427.815 880.587 557.963 971.718 565.976C1062.85 573.989 1093.57 419.989 1186 420.136C1328.2 420.361 1357.42 744.136 1399.98 853.438C1442.53 962.741 1510.36 1122.39 1616.88 988.681C1723.4 854.972 1761.25 766.74 1849.02 842.375C1936.78 918.011 2012.81 919.897 2072.95 861.035C2121.07 813.946 2143.15 796.386 2148.18 793.493C2160.97 783.559 2201.92 766.093 2263.31 775.697" stroke="url(#paint78_linear_3311_2)"/>
<path opacity="0.612245" d="M114.737 564.028C195.44 640.236 325.124 663.724 424.097 638.945C473.934 620.417 535.173 590.854 573.099 446.281C629.509 231.248 712.139 263.487 774.762 346.107C837.385 428.728 877.882 558.856 968.941 567.172C1060 575.489 1091.25 421.784 1183.64 422.248C1325.77 422.962 1353.83 746.439 1395.98 855.753C1438.12 965.067 1505.36 1124.75 1612.3 991.575C1719.24 858.397 1757.39 770.403 1844.84 846.247C1932.3 922.091 2008.28 924.236 2068.6 865.653C2116.86 818.787 2139 801.325 2144.03 798.452C2156.86 788.575 2197.84 771.271 2259.17 781.074" stroke="url(#paint79_linear_3311_2)"/>
<path opacity="0.632653" d="M112.373 562.285C192.767 638.677 322.306 662.581 421.32 638.173C471.198 619.84 532.513 590.524 570.932 446.26C628.075 231.685 710.551 264.168 772.852 346.902C835.153 429.637 875.17 559.744 966.156 568.363C1057.14 576.982 1088.92 423.575 1181.27 424.356C1323.32 425.557 1350.22 748.732 1391.96 858.057C1433.71 967.381 1500.35 1127.1 1607.71 994.455C1715.07 861.809 1753.51 774.055 1840.65 850.106C1927.79 926.157 2003.73 928.561 2064.24 870.258C2112.64 823.615 2134.82 806.251 2139.86 803.399C2152.72 793.578 2193.75 776.436 2255.01 786.438" stroke="url(#paint80_linear_3311_2)"/>
<path opacity="0.653061" d="M110.01 560.539C190.096 637.113 319.489 661.434 418.541 637.397C468.461 619.258 529.849 590.189 568.76 446.235C626.634 232.122 708.956 264.848 770.934 347.695C832.912 430.542 872.451 560.626 963.363 569.548C1054.27 578.47 1086.58 425.36 1178.88 426.458C1320.86 428.147 1346.61 751.016 1387.94 860.35C1429.28 969.683 1495.32 1129.44 1603.1 997.322C1710.88 865.209 1749.61 777.695 1836.44 853.953C1923.27 930.21 1999.17 932.872 2059.85 874.849C2108.39 828.431 2130.63 811.164 2135.68 808.333C2148.56 798.568 2189.63 781.589 2250.83 791.79" stroke="url(#paint81_linear_3311_2)"/>
<path opacity="0.673469" d="M107.65 558.79C187.427 635.545 316.672 660.282 415.761 636.616C465.721 618.671 527.183 589.85 566.583 446.207C625.185 232.557 707.352 265.527 769.008 348.485C830.664 431.443 869.725 561.503 960.561 570.727C1051.4 579.951 1084.23 427.142 1176.48 428.556C1318.39 430.732 1342.98 753.291 1383.91 862.632C1424.84 971.972 1490.29 1131.75 1598.48 1000.18C1706.67 868.597 1745.69 781.325 1832.22 857.787C1918.74 934.249 1994.59 937.17 2055.44 879.427C2104.13 833.233 2126.41 816.064 2131.47 813.254C2144.38 803.546 2185.49 786.729 2246.62 797.128" stroke="url(#paint82_linear_3311_2)"/>
<path opacity="0.693878" d="M105.292 557.038C184.76 633.973 313.855 659.125 412.98 635.829C462.98 618.079 524.514 589.505 564.402 446.176C623.73 232.993 705.741 266.205 767.075 349.273C828.409 432.34 866.991 562.374 957.752 571.899C1048.51 581.425 1081.87 428.918 1174.07 430.649C1315.9 433.311 1339.35 755.556 1379.87 864.902C1420.39 974.249 1485.24 1134.06 1593.85 1003.02C1702.46 871.973 1741.77 784.943 1827.98 861.609C1914.19 938.275 1989.99 941.453 2051.02 883.992C2099.84 838.023 2122.18 820.952 2127.24 818.163C2140.18 808.511 2181.33 791.856 2242.4 802.453" stroke="url(#paint83_linear_3311_2)"/>
<path opacity="0.714286" d="M102.935 555.285C182.094 632.399 311.039 657.964 410.199 635.04C460.236 617.484 521.842 589.157 562.216 446.144C622.268 233.429 704.122 266.883 765.134 350.059C826.145 433.236 864.251 563.241 954.934 573.068C1045.62 582.895 1079.5 430.692 1171.64 432.738C1313.4 435.886 1335.7 757.813 1375.82 867.164C1415.93 976.515 1480.19 1136.35 1589.21 1005.84C1698.22 875.338 1737.82 788.552 1823.72 865.42C1909.62 942.288 1985.38 945.724 2046.58 888.544C2095.54 842.801 2117.92 825.828 2123 823.06C2135.96 813.465 2177.15 796.973 2238.15 807.767" stroke="url(#paint84_linear_3311_2)"/>
<path opacity="0.734694" d="M100.58 553.525C179.429 630.816 308.223 656.795 407.416 634.241C457.491 616.88 519.167 588.801 560.026 446.104C620.798 233.861 702.496 267.556 763.185 350.839C823.874 434.123 861.503 564.099 952.108 574.227C1042.71 584.354 1077.11 432.457 1169.21 434.819C1310.89 438.453 1332.04 760.057 1371.75 869.41C1411.47 978.764 1475.13 1138.62 1584.55 1008.66C1693.98 878.688 1733.86 792.145 1819.45 869.215C1905.03 946.284 1980.74 949.977 2042.12 893.08C2091.22 847.562 2113.65 830.688 2118.73 827.94C2131.72 818.402 2172.95 802.072 2233.88 813.064" stroke="url(#paint85_linear_3311_2)"/>
<path opacity="0.755102" d="M98.2278 551.763C176.767 629.231 305.407 655.623 404.632 633.439C454.744 616.272 516.489 588.442 557.831 446.063C619.322 234.293 700.861 268.229 761.228 351.619C821.595 435.009 858.749 564.953 949.275 575.381C1039.8 585.809 1074.72 434.219 1166.76 436.897C1308.36 441.015 1328.37 762.293 1367.68 871.648C1406.99 981.003 1470.06 1140.88 1579.89 1011.46C1689.72 882.026 1729.88 795.73 1815.16 872.999C1900.43 950.268 1976.09 954.218 2037.64 897.603C2086.87 852.312 2109.36 835.536 2114.44 832.809C2127.47 823.327 2168.73 807.161 2229.59 818.349" stroke="url(#paint86_linear_3311_2)"/>
<path opacity="0.77551" d="M95.8772 549.999C174.106 627.642 302.591 654.446 401.847 632.633C451.996 615.66 513.809 588.078 555.632 446.019C617.838 234.726 699.219 268.901 759.264 352.395C819.308 435.89 855.987 565.802 946.433 576.529C1036.88 587.257 1072.31 435.977 1164.3 438.969C1305.82 443.572 1324.69 764.519 1363.59 873.874C1402.5 983.229 1464.98 1143.13 1575.21 1014.24C1685.44 885.353 1725.89 799.302 1810.86 876.77C1895.82 954.238 1971.43 958.445 2033.14 902.113C2082.51 857.048 2105.04 840.371 2110.14 837.665C2123.19 828.24 2164.49 812.236 2225.28 823.621" stroke="url(#paint87_linear_3311_2)"/>
<path opacity="0.795918" d="M93.5284 548.234C171.447 626.051 299.776 653.265 399.061 631.823C449.246 615.045 511.126 587.711 553.428 445.974C616.348 235.159 697.57 269.573 757.292 353.171C817.014 436.77 853.218 566.646 943.583 577.674C1033.95 588.701 1069.9 437.732 1161.83 441.038C1303.26 446.125 1320.99 766.738 1359.5 876.091C1398 985.444 1459.89 1145.36 1570.52 1017.01C1681.15 888.669 1721.89 802.865 1806.54 880.531C1891.18 958.196 1966.74 962.659 2028.63 906.611C2078.13 861.773 2100.71 845.194 2105.81 842.51C2118.89 833.142 2160.23 817.301 2220.95 828.882" stroke="url(#paint88_linear_3311_2)"/>
<path opacity="0.816327" d="M91.1817 546.462C168.789 624.451 296.962 652.076 396.274 631.004C446.494 614.421 508.44 587.336 551.22 445.922C614.85 235.587 695.912 270.239 755.312 353.941C814.712 437.642 850.443 567.481 940.725 578.808C1031.01 590.134 1067.47 439.478 1159.35 443.099C1300.7 448.668 1317.29 768.943 1355.39 878.293C1393.49 987.643 1454.79 1147.57 1565.82 1019.77C1676.85 891.969 1717.86 806.413 1802.2 884.275C1886.54 962.136 1962.04 966.855 2024.09 911.091C2073.73 866.481 2096.36 850.001 2101.47 847.337C2114.57 838.026 2155.94 822.348 2216.6 834.125" stroke="url(#paint89_linear_3311_2)"/>
<path opacity="0.836735" d="M88.837 544.688C166.134 622.849 294.147 650.884 393.486 630.183C443.74 613.794 505.752 586.957 549.008 445.868C613.346 236.017 694.247 270.907 753.325 354.709C812.402 438.511 847.66 568.312 937.86 579.938C1028.06 591.563 1065.03 441.221 1156.86 445.155C1298.11 451.208 1313.58 771.14 1351.28 880.485C1388.98 989.83 1449.68 1149.77 1561.1 1022.52C1672.53 895.258 1713.83 809.951 1797.85 888.008C1881.87 966.064 1957.32 971.039 2019.54 915.56C2069.31 871.177 2091.99 854.796 2097.1 852.153C2110.23 842.899 2151.64 827.384 2212.22 839.356" stroke="url(#paint90_linear_3311_2)"/>
<path opacity="0.857143" d="M86.4942 542.914C163.48 621.245 291.334 649.689 390.697 629.358C440.985 613.164 503.061 586.575 546.791 445.813C611.834 236.447 692.575 271.574 751.33 355.476C810.085 439.379 844.87 569.14 934.986 581.063C1025.1 592.987 1062.58 442.961 1154.35 447.209C1295.52 453.744 1309.85 773.329 1347.15 882.668C1384.45 992.007 1444.56 1151.96 1556.38 1025.25C1668.2 898.536 1709.77 813.48 1793.48 891.73C1877.19 969.98 1952.59 975.21 2014.97 920.016C2064.88 875.861 2087.59 859.58 2092.72 856.958C2105.87 847.761 2147.32 832.409 2207.83 844.576" stroke="url(#paint91_linear_3311_2)"/>
<path opacity="0.877551" d="M84.1535 541.133C160.827 619.633 288.52 648.485 387.908 628.524C438.228 612.525 500.368 586.185 544.57 445.751C610.316 236.873 690.894 272.236 749.327 356.237C807.76 440.238 842.074 569.957 932.105 582.179C1022.14 594.4 1060.13 444.692 1151.83 449.253C1292.91 456.27 1306.12 775.504 1343.01 884.836C1379.91 994.168 1439.43 1154.13 1551.64 1027.96C1663.85 901.798 1705.71 816.993 1789.1 895.435C1872.49 973.878 1947.84 979.363 2010.38 924.455C2060.42 880.528 2083.18 864.346 2088.31 861.745C2101.49 852.606 2142.97 837.417 2203.41 849.778" stroke="url(#paint92_linear_3311_2)"/>
<path opacity="0.897959" d="M81.8148 539.351C158.177 618.019 285.708 647.278 385.117 627.687C435.469 611.883 497.671 585.792 542.345 445.687C608.79 237.3 689.206 272.898 747.317 356.997C805.428 441.096 839.271 570.771 929.215 583.29C1019.16 595.808 1057.66 446.42 1149.3 451.294C1290.29 458.792 1302.37 777.672 1338.87 886.995C1375.36 996.317 1434.3 1156.29 1546.89 1030.67C1659.49 905.05 1701.62 820.496 1784.7 899.13C1867.78 977.764 1943.07 983.503 2005.78 928.881C2055.94 885.184 2078.75 869.1 2083.89 866.521C2097.1 857.439 2138.61 842.413 2198.98 854.969" stroke="url(#paint93_linear_3311_2)"/>
<path opacity="0.918367" d="M79.4781 537.566C155.528 616.401 282.895 646.066 382.326 626.845C432.709 611.236 494.973 585.394 540.115 445.62C607.258 237.726 687.511 273.559 745.299 357.754C803.088 441.949 836.461 571.579 926.318 584.395C1016.18 597.21 1055.18 448.143 1146.76 453.33C1287.65 461.308 1298.62 779.829 1334.71 889.142C1370.81 998.454 1429.15 1158.43 1542.13 1033.36C1655.12 908.289 1697.53 823.987 1780.29 902.811C1863.05 981.635 1938.29 987.629 2001.15 933.294C2051.45 889.825 2074.3 873.842 2079.45 871.283C2092.68 862.258 2134.22 847.395 2194.52 860.145" stroke="url(#paint94_linear_3311_2)"/>
<path opacity="0.938776" d="M77.1434 535.78C152.881 614.78 280.084 644.851 379.534 626C429.947 610.586 492.271 584.993 537.88 445.552C605.718 238.152 685.807 274.219 743.274 358.51C800.74 442.8 833.644 572.383 923.413 585.495C1013.18 598.607 1052.69 449.863 1144.21 455.362C1285.01 463.82 1294.85 781.979 1330.54 891.279C1366.24 1000.58 1424 1160.55 1537.36 1036.04C1650.73 911.517 1693.41 827.469 1775.86 906.481C1858.31 985.494 1933.49 991.742 1996.51 937.694C2046.94 894.455 2069.84 878.571 2074.98 876.034C2088.24 867.066 2129.82 852.366 2190.04 865.31" stroke="url(#paint95_linear_3311_2)"/>
<path opacity="0.959184" d="M74.8108 533.987C150.236 613.151 277.273 643.627 376.74 625.146C427.183 609.927 489.567 584.583 535.642 445.477C604.172 238.574 684.096 274.875 741.241 359.259C798.385 443.643 830.82 573.177 920.501 586.585C1010.18 599.993 1050.19 451.574 1141.65 457.384C1282.35 466.322 1291.07 784.115 1326.37 893.402C1361.66 1002.69 1418.84 1162.66 1532.58 1038.7C1646.33 914.728 1689.28 830.935 1771.42 910.135C1853.55 989.335 1928.67 995.837 1991.85 942.076C2042.4 899.067 2065.35 883.283 2070.5 880.767C2083.79 871.856 2125.39 857.32 2185.54 870.457" stroke="url(#paint96_linear_3311_2)"/>
<path opacity="0.979592" d="M72.4803 532.195C147.593 611.522 274.462 642.402 373.947 624.291C424.418 609.267 486.861 584.172 533.399 445.402C602.619 238.999 682.378 275.532 739.2 360.009C796.022 444.485 827.989 573.97 917.58 587.673C1007.17 601.376 1047.67 453.284 1139.07 459.406C1279.67 468.822 1287.28 786.244 1322.18 895.517C1357.08 1004.79 1413.66 1164.76 1527.79 1041.35C1641.91 917.931 1685.14 834.392 1766.96 913.779C1848.77 993.165 1923.83 999.921 1987.18 946.447C2037.85 903.669 2060.84 887.984 2066 885.49C2079.31 876.637 2120.95 862.263 2181.02 875.594" stroke="url(#paint97_linear_3311_2)"/>
<path d="M70.1519 530.396C144.952 609.885 271.652 641.168 371.152 623.427C421.652 608.598 484.152 583.752 531.152 445.319C601.058 239.418 680.652 276.184 737.152 360.752C793.652 445.32 825.152 574.752 914.652 588.751C1004.15 602.749 1045.15 454.985 1136.48 461.417C1276.98 471.312 1283.48 788.36 1317.98 897.616C1352.48 1006.87 1408.48 1166.84 1522.98 1043.98C1637.48 921.116 1680.98 837.834 1762.48 917.406C1843.98 996.977 1918.98 1003.99 1982.48 950.801C2033.28 908.253 2056.32 892.669 2061.48 890.195C2074.82 881.399 2116.48 867.19 2176.48 880.712" stroke="url(#paint98_linear_3311_2)"/>
<defs>
<linearGradient id="paint0_linear_3311_2" x1="143.651" y1="366.856" x2="2288.82" y2="895.598" gradientUnits="userSpaceOnUse">
<stop offset="0.0717844" stop-color="#6A8BE7"/>
<stop offset="0.246461" stop-color="#9B55F3"/>
<stop offset="0.495" stop-color="#D451C1"/>
<stop offset="0.8" stop-color="#E75FA1"/>
</linearGradient>
<linearGradient id="paint1_linear_3311_2" x1="142.151" y1="365.356" x2="2288.13" y2="886.472" gradientUnits="userSpaceOnUse">
<stop offset="0.0717844" stop-color="#6A8BE7"/>
<stop offset="0.246461" stop-color="#9B55F3"/>
<stop offset="0.495" stop-color="#D451C1"/>
<stop offset="0.8" stop-color="#E75FA1"/>
</linearGradient>
<linearGradient id="paint2_linear_3311_2" x1="140.655" y1="363.856" x2="2287.4" y2="877.347" gradientUnits="userSpaceOnUse">
<stop offset="0.0717844" stop-color="#6A8BE7"/>
<stop offset="0.246461" stop-color="#9B55F3"/>
<stop offset="0.495" stop-color="#D451C1"/>
<stop offset="0.8" stop-color="#E75FA1"/>
</linearGradient>
<linearGradient id="paint3_linear_3311_2" x1="139.155" y1="362.356" x2="2286.65" y2="868.223" gradientUnits="userSpaceOnUse">
<stop offset="0.0717844" stop-color="#6A8BE7"/>
<stop offset="0.246461" stop-color="#9B55F3"/>
<stop offset="0.495" stop-color="#D451C1"/>
<stop offset="0.8" stop-color="#E75FA1"/>
</linearGradient>
<linearGradient id="paint4_linear_3311_2" x1="137.651" y1="360.856" x2="2285.87" y2="859.1" gradientUnits="userSpaceOnUse">
<stop offset="0.0717844" stop-color="#6A8BE7"/>
<stop offset="0.246461" stop-color="#9B55F3"/>
<stop offset="0.495" stop-color="#D451C1"/>
<stop offset="0.8" stop-color="#E75FA1"/>
</linearGradient>
<linearGradient id="paint5_linear_3311_2" x1="136.151" y1="359.356" x2="2285.06" y2="849.979" gradientUnits="userSpaceOnUse">
<stop offset="0.0717844" stop-color="#6A8BE7"/>
<stop offset="0.246461" stop-color="#9B55F3"/>
<stop offset="0.495" stop-color="#D451C1"/>
<stop offset="0.8" stop-color="#E75FA1"/>
</linearGradient>
<linearGradient id="paint6_linear_3311_2" x1="134.655" y1="357.856" x2="2284.23" y2="840.859" gradientUnits="userSpaceOnUse">
<stop offset="0.0717844" stop-color="#6A8BE7"/>
<stop offset="0.246461" stop-color="#9B55F3"/>
<stop offset="0.495" stop-color="#D451C1"/>
<stop offset="0.8" stop-color="#E75FA1"/>
</linearGradient>
<linearGradient id="paint7_linear_3311_2" x1="133.155" y1="356.356" x2="2283.37" y2="831.74" gradientUnits="userSpaceOnUse">
<stop offset="0.0717844" stop-color="#6A8BE7"/>
<stop offset="0.246461" stop-color="#9B55F3"/>
<stop offset="0.495" stop-color="#D451C1"/>
<stop offset="0.8" stop-color="#E75FA1"/>
</linearGradient>
<linearGradient id="paint8_linear_3311_2" x1="131.651" y1="354.856" x2="2282.48" y2="822.623" gradientUnits="userSpaceOnUse">
<stop offset="0.0717844" stop-color="#6A8BE7"/>
<stop offset="0.246461" stop-color="#9B55F3"/>
<stop offset="0.495" stop-color="#D451C1"/>
<stop offset="0.8" stop-color="#E75FA1"/>
</linearGradient>
<linearGradient id="paint9_linear_3311_2" x1="130.151" y1="353.356" x2="2281.57" y2="813.508" gradientUnits="userSpaceOnUse">
<stop offset="0.0717844" stop-color="#6A8BE7"/>
<stop offset="0.246461" stop-color="#9B55F3"/>
<stop offset="0.495" stop-color="#D451C1"/>
<stop offset="0.8" stop-color="#E75FA1"/>
</linearGradient>
<linearGradient id="paint10_linear_3311_2" x1="128.651" y1="351.856" x2="2280.63" y2="804.395" gradientUnits="userSpaceOnUse">
<stop offset="0.0717844" stop-color="#6A8BE7"/>
<stop offset="0.246461" stop-color="#9B55F3"/>
<stop offset="0.495" stop-color="#D451C1"/>
<stop offset="0.8" stop-color="#E75FA1"/>
</linearGradient>
<linearGradient id="paint11_linear_3311_2" x1="127.155" y1="350.356" x2="2279.66" y2="795.283" gradientUnits="userSpaceOnUse">
<stop offset="0.0717844" stop-color="#6A8BE7"/>
<stop offset="0.246461" stop-color="#9B55F3"/>
<stop offset="0.495" stop-color="#D451C1"/>
<stop offset="0.8" stop-color="#E75FA1"/>
</linearGradient>
<linearGradient id="paint12_linear_3311_2" x1="125.655" y1="348.856" x2="2278.67" y2="786.173" gradientUnits="userSpaceOnUse">
<stop offset="0.0717844" stop-color="#6A8BE7"/>
<stop offset="0.246461" stop-color="#9B55F3"/>
<stop offset="0.495" stop-color="#D451C1"/>
<stop offset="0.8" stop-color="#E75FA1"/>
</linearGradient>
<linearGradient id="paint13_linear_3311_2" x1="124.155" y1="347.356" x2="2277.64" y2="777.066" gradientUnits="userSpaceOnUse">
<stop offset="0.0717844" stop-color="#6A8BE7"/>
<stop offset="0.246461" stop-color="#9B55F3"/>
<stop offset="0.495" stop-color="#D451C1"/>
<stop offset="0.8" stop-color="#E75FA1"/>
</linearGradient>
<linearGradient id="paint14_linear_3311_2" x1="122.655" y1="345.856" x2="2276.6" y2="767.96" gradientUnits="userSpaceOnUse">
<stop offset="0.0717844" stop-color="#6A8BE7"/>
<stop offset="0.246461" stop-color="#9B55F3"/>
<stop offset="0.495" stop-color="#D451C1"/>
<stop offset="0.8" stop-color="#E75FA1"/>
</linearGradient>
<linearGradient id="paint15_linear_3311_2" x1="121.151" y1="344.356" x2="2275.52" y2="758.857" gradientUnits="userSpaceOnUse">
<stop offset="0.0717844" stop-color="#6A8BE7"/>
<stop offset="0.246461" stop-color="#9B55F3"/>
<stop offset="0.495" stop-color="#D451C1"/>
<stop offset="0.8" stop-color="#E75FA1"/>
</linearGradient>
<linearGradient id="paint16_linear_3311_2" x1="119.651" y1="342.856" x2="2274.41" y2="749.756" gradientUnits="userSpaceOnUse">
<stop offset="0.0717844" stop-color="#6A8BE7"/>
<stop offset="0.246461" stop-color="#9B55F3"/>
<stop offset="0.495" stop-color="#D451C1"/>
<stop offset="0.8" stop-color="#E75FA1"/>
</linearGradient>
<linearGradient id="paint17_linear_3311_2" x1="118.151" y1="341.356" x2="2273.28" y2="740.657" gradientUnits="userSpaceOnUse">
<stop offset="0.0717844" stop-color="#6A8BE7"/>
<stop offset="0.246461" stop-color="#9B55F3"/>
<stop offset="0.495" stop-color="#D451C1"/>
<stop offset="0.8" stop-color="#E75FA1"/>
</linearGradient>
<linearGradient id="paint18_linear_3311_2" x1="116.651" y1="339.856" x2="2272.13" y2="731.562" gradientUnits="userSpaceOnUse">
<stop offset="0.0717844" stop-color="#6A8BE7"/>
<stop offset="0.246461" stop-color="#9B55F3"/>
<stop offset="0.495" stop-color="#D451C1"/>
<stop offset="0.8" stop-color="#E75FA1"/>
</linearGradient>
<linearGradient id="paint19_linear_3311_2" x1="115.151" y1="338.356" x2="2270.94" y2="722.468" gradientUnits="userSpaceOnUse">
<stop offset="0.0717844" stop-color="#6A8BE7"/>
<stop offset="0.246461" stop-color="#9B55F3"/>
<stop offset="0.495" stop-color="#D451C1"/>
<stop offset="0.8" stop-color="#E75FA1"/>
</linearGradient>
<linearGradient id="paint20_linear_3311_2" x1="113.651" y1="336.856" x2="2269.73" y2="713.378" gradientUnits="userSpaceOnUse">
<stop offset="0.0717844" stop-color="#6A8BE7"/>
<stop offset="0.246461" stop-color="#9B55F3"/>
<stop offset="0.495" stop-color="#D451C1"/>
<stop offset="0.8" stop-color="#E75FA1"/>
</linearGradient>
<linearGradient id="paint21_linear_3311_2" x1="112.151" y1="335.356" x2="2268.49" y2="704.29" gradientUnits="userSpaceOnUse">
<stop offset="0.0717844" stop-color="#6A8BE7"/>
<stop offset="0.246461" stop-color="#9B55F3"/>
<stop offset="0.495" stop-color="#D451C1"/>
<stop offset="0.8" stop-color="#E75FA1"/>
</linearGradient>
<linearGradient id="paint22_linear_3311_2" x1="110.651" y1="333.856" x2="2267.23" y2="695.205" gradientUnits="userSpaceOnUse">
<stop offset="0.0717844" stop-color="#6A8BE7"/>
<stop offset="0.246461" stop-color="#9B55F3"/>
<stop offset="0.495" stop-color="#D451C1"/>
<stop offset="0.8" stop-color="#E75FA1"/>
</linearGradient>
<linearGradient id="paint23_linear_3311_2" x1="109.151" y1="332.356" x2="2265.94" y2="686.123" gradientUnits="userSpaceOnUse">
<stop offset="0.0717844" stop-color="#6A8BE7"/>
<stop offset="0.246461" stop-color="#9B55F3"/>
<stop offset="0.495" stop-color="#D451C1"/>
<stop offset="0.8" stop-color="#E75FA1"/>
</linearGradient>
<linearGradient id="paint24_linear_3311_2" x1="107.651" y1="330.856" x2="2264.62" y2="677.045" gradientUnits="userSpaceOnUse">
<stop offset="0.0717844" stop-color="#6A8BE7"/>
<stop offset="0.246461" stop-color="#9B55F3"/>
<stop offset="0.495" stop-color="#D451C1"/>
<stop offset="0.8" stop-color="#E75FA1"/>
</linearGradient>
<linearGradient id="paint25_linear_3311_2" x1="106.151" y1="329.356" x2="2263.28" y2="667.969" gradientUnits="userSpaceOnUse">
<stop offset="0.0717844" stop-color="#6A8BE7"/>
<stop offset="0.246461" stop-color="#9B55F3"/>
<stop offset="0.495" stop-color="#D451C1"/>
<stop offset="0.8" stop-color="#E75FA1"/>
</linearGradient>
<linearGradient id="paint26_linear_3311_2" x1="104.651" y1="327.856" x2="2261.91" y2="658.897" gradientUnits="userSpaceOnUse">
<stop offset="0.0717844" stop-color="#6A8BE7"/>
<stop offset="0.246461" stop-color="#9B55F3"/>
<stop offset="0.495" stop-color="#D451C1"/>
<stop offset="0.8" stop-color="#E75FA1"/>
</linearGradient>
<linearGradient id="paint27_linear_3311_2" x1="103.155" y1="326.356" x2="2260.52" y2="649.828" gradientUnits="userSpaceOnUse">
<stop offset="0.0717844" stop-color="#6A8BE7"/>
<stop offset="0.246461" stop-color="#9B55F3"/>
<stop offset="0.495" stop-color="#D451C1"/>
<stop offset="0.8" stop-color="#E75FA1"/>
</linearGradient>
<linearGradient id="paint28_linear_3311_2" x1="101.651" y1="324.856" x2="2259.09" y2="640.763" gradientUnits="userSpaceOnUse">
<stop offset="0.0717844" stop-color="#6A8BE7"/>
<stop offset="0.246461" stop-color="#9B55F3"/>
<stop offset="0.495" stop-color="#D451C1"/>
<stop offset="0.8" stop-color="#E75FA1"/>
</linearGradient>
<linearGradient id="paint29_linear_3311_2" x1="100.155" y1="323.356" x2="2257.64" y2="631.701" gradientUnits="userSpaceOnUse">
<stop offset="0.0717844" stop-color="#6A8BE7"/>
<stop offset="0.246461" stop-color="#9B55F3"/>
<stop offset="0.495" stop-color="#D451C1"/>
<stop offset="0.8" stop-color="#E75FA1"/>
</linearGradient>
<linearGradient id="paint30_linear_3311_2" x1="98.655" y1="321.856" x2="2256.16" y2="622.643" gradientUnits="userSpaceOnUse">
<stop offset="0.0717844" stop-color="#6A8BE7"/>
<stop offset="0.246461" stop-color="#9B55F3"/>
<stop offset="0.495" stop-color="#D451C1"/>
<stop offset="0.8" stop-color="#E75FA1"/>
</linearGradient>
<linearGradient id="paint31_linear_3311_2" x1="97.1511" y1="320.356" x2="2254.66" y2="613.589" gradientUnits="userSpaceOnUse">
<stop offset="0.0717844" stop-color="#6A8BE7"/>
<stop offset="0.246461" stop-color="#9B55F3"/>
<stop offset="0.495" stop-color="#D451C1"/>
<stop offset="0.8" stop-color="#E75FA1"/>
</linearGradient>
<linearGradient id="paint32_linear_3311_2" x1="95.6511" y1="318.856" x2="2253.13" y2="604.539" gradientUnits="userSpaceOnUse">
<stop offset="0.0717844" stop-color="#6A8BE7"/>
<stop offset="0.246461" stop-color="#9B55F3"/>
<stop offset="0.495" stop-color="#D451C1"/>
<stop offset="0.8" stop-color="#E75FA1"/>
</linearGradient>
<linearGradient id="paint33_linear_3311_2" x1="94.1511" y1="317.356" x2="2251.57" y2="595.492" gradientUnits="userSpaceOnUse">
<stop offset="0.0717844" stop-color="#6A8BE7"/>
<stop offset="0.246461" stop-color="#9B55F3"/>
<stop offset="0.495" stop-color="#D451C1"/>
<stop offset="0.8" stop-color="#E75FA1"/>
</linearGradient>
<linearGradient id="paint34_linear_3311_2" x1="92.6511" y1="315.856" x2="2249.99" y2="586.45" gradientUnits="userSpaceOnUse">
<stop offset="0.0717844" stop-color="#6A8BE7"/>
<stop offset="0.246461" stop-color="#9B55F3"/>
<stop offset="0.495" stop-color="#D451C1"/>
<stop offset="0.8" stop-color="#E75FA1"/>
</linearGradient>
<linearGradient id="paint35_linear_3311_2" x1="91.1511" y1="314.356" x2="2248.38" y2="577.412" gradientUnits="userSpaceOnUse">
<stop offset="0.0717844" stop-color="#6A8BE7"/>
<stop offset="0.246461" stop-color="#9B55F3"/>
<stop offset="0.495" stop-color="#D451C1"/>
<stop offset="0.8" stop-color="#E75FA1"/>
</linearGradient>
<linearGradient id="paint36_linear_3311_2" x1="89.655" y1="312.856" x2="2246.75" y2="568.377" gradientUnits="userSpaceOnUse">
<stop offset="0.0717844" stop-color="#6A8BE7"/>
<stop offset="0.246461" stop-color="#9B55F3"/>
<stop offset="0.495" stop-color="#D451C1"/>
<stop offset="0.8" stop-color="#E75FA1"/>
</linearGradient>
<linearGradient id="paint37_linear_3311_2" x1="88.155" y1="311.356" x2="2245.09" y2="559.348" gradientUnits="userSpaceOnUse">
<stop offset="0.0717844" stop-color="#6A8BE7"/>
<stop offset="0.246461" stop-color="#9B55F3"/>
<stop offset="0.495" stop-color="#D451C1"/>
<stop offset="0.8" stop-color="#E75FA1"/>
</linearGradient>
<linearGradient id="paint38_linear_3311_2" x1="86.6511" y1="309.856" x2="2243.39" y2="550.323" gradientUnits="userSpaceOnUse">
<stop offset="0.0717844" stop-color="#6A8BE7"/>
<stop offset="0.246461" stop-color="#9B55F3"/>
<stop offset="0.495" stop-color="#D451C1"/>
<stop offset="0.8" stop-color="#E75FA1"/>
</linearGradient>
<linearGradient id="paint39_linear_3311_2" x1="85.155" y1="308.356" x2="2241.68" y2="541.302" gradientUnits="userSpaceOnUse">
<stop offset="0.0717844" stop-color="#6A8BE7"/>
<stop offset="0.246461" stop-color="#9B55F3"/>
<stop offset="0.495" stop-color="#D451C1"/>
<stop offset="0.8" stop-color="#E75FA1"/>
</linearGradient>
<linearGradient id="paint40_linear_3311_2" x1="83.655" y1="306.856" x2="2239.94" y2="532.286" gradientUnits="userSpaceOnUse">
<stop offset="0.0717844" stop-color="#6A8BE7"/>
<stop offset="0.246461" stop-color="#9B55F3"/>
<stop offset="0.495" stop-color="#D451C1"/>
<stop offset="0.8" stop-color="#E75FA1"/>
</linearGradient>
<linearGradient id="paint41_linear_3311_2" x1="82.1511" y1="305.356" x2="2238.17" y2="523.274" gradientUnits="userSpaceOnUse">
<stop offset="0.0717844" stop-color="#6A8BE7"/>
<stop offset="0.246461" stop-color="#9B55F3"/>
<stop offset="0.495" stop-color="#D451C1"/>
<stop offset="0.8" stop-color="#E75FA1"/>
</linearGradient>
<linearGradient id="paint42_linear_3311_2" x1="80.6511" y1="303.856" x2="2236.38" y2="514.268" gradientUnits="userSpaceOnUse">
<stop offset="0.0717844" stop-color="#6A8BE7"/>
<stop offset="0.246461" stop-color="#9B55F3"/>
<stop offset="0.495" stop-color="#D451C1"/>
<stop offset="0.8" stop-color="#E75FA1"/>
</linearGradient>
<linearGradient id="paint43_linear_3311_2" x1="79.1511" y1="302.356" x2="2234.56" y2="505.266" gradientUnits="userSpaceOnUse">
<stop offset="0.0717844" stop-color="#6A8BE7"/>
<stop offset="0.246461" stop-color="#9B55F3"/>
<stop offset="0.495" stop-color="#D451C1"/>
<stop offset="0.8" stop-color="#E75FA1"/>
</linearGradient>
<linearGradient id="paint44_linear_3311_2" x1="77.6511" y1="300.856" x2="2232.71" y2="496.269" gradientUnits="userSpaceOnUse">
<stop offset="0.0717844" stop-color="#6A8BE7"/>
<stop offset="0.246461" stop-color="#9B55F3"/>
<stop offset="0.495" stop-color="#D451C1"/>
<stop offset="0.8" stop-color="#E75FA1"/>
</linearGradient>
<linearGradient id="paint45_linear_3311_2" x1="76.155" y1="299.356" x2="2230.85" y2="487.277" gradientUnits="userSpaceOnUse">
<stop offset="0.0717844" stop-color="#6A8BE7"/>
<stop offset="0.246461" stop-color="#9B55F3"/>
<stop offset="0.495" stop-color="#D451C1"/>
<stop offset="0.8" stop-color="#E75FA1"/>
</linearGradient>
<linearGradient id="paint46_linear_3311_2" x1="74.6511" y1="297.856" x2="2228.94" y2="478.291" gradientUnits="userSpaceOnUse">
<stop offset="0.0717844" stop-color="#6A8BE7"/>
<stop offset="0.246461" stop-color="#9B55F3"/>
<stop offset="0.495" stop-color="#D451C1"/>
<stop offset="0.8" stop-color="#E75FA1"/>
</linearGradient>
<linearGradient id="paint47_linear_3311_2" x1="73.155" y1="296.356" x2="2227.02" y2="469.309" gradientUnits="userSpaceOnUse">
<stop offset="0.0717844" stop-color="#6A8BE7"/>
<stop offset="0.246461" stop-color="#9B55F3"/>
<stop offset="0.495" stop-color="#D451C1"/>
<stop offset="0.8" stop-color="#E75FA1"/>
</linearGradient>
<linearGradient id="paint48_linear_3311_2" x1="71.655" y1="294.856" x2="2225.07" y2="460.333" gradientUnits="userSpaceOnUse">
<stop offset="0.0717844" stop-color="#6A8BE7"/>
<stop offset="0.246461" stop-color="#9B55F3"/>
<stop offset="0.495" stop-color="#D451C1"/>
<stop offset="0.8" stop-color="#E75FA1"/>
</linearGradient>
<linearGradient id="paint49_linear_3311_2" x1="143.652" y1="366.858" x2="2341.89" y2="145.361" gradientUnits="userSpaceOnUse">
<stop offset="0.0717844" stop-color="#6A8BE7"/>
<stop offset="0.246461" stop-color="#9B55F3"/>
<stop offset="0.495" stop-color="#D451C1"/>
<stop offset="0.8" stop-color="#E75FA1"/>
</linearGradient>
<linearGradient id="paint50_linear_3311_2" x1="142.152" y1="365.358" x2="2340.14" y2="151.747" gradientUnits="userSpaceOnUse">
<stop offset="0.0717844" stop-color="#6A8BE7"/>
<stop offset="0.246461" stop-color="#9B55F3"/>
<stop offset="0.495" stop-color="#D451C1"/>
<stop offset="0.8" stop-color="#E75FA1"/>
</linearGradient>
<linearGradient id="paint51_linear_3311_2" x1="140.652" y1="363.858" x2="2338.35" y2="158.129" gradientUnits="userSpaceOnUse">
<stop offset="0.0717844" stop-color="#6A8BE7"/>
<stop offset="0.246461" stop-color="#9B55F3"/>
<stop offset="0.495" stop-color="#D451C1"/>
<stop offset="0.8" stop-color="#E75FA1"/>
</linearGradient>
<linearGradient id="paint52_linear_3311_2" x1="139.152" y1="362.357" x2="2336.54" y2="164.506" gradientUnits="userSpaceOnUse">
<stop offset="0.0717844" stop-color="#6A8BE7"/>
<stop offset="0.246461" stop-color="#9B55F3"/>
<stop offset="0.495" stop-color="#D451C1"/>
<stop offset="0.8" stop-color="#E75FA1"/>
</linearGradient>
<linearGradient id="paint53_linear_3311_2" x1="137.652" y1="360.859" x2="2334.7" y2="170.881" gradientUnits="userSpaceOnUse">
<stop offset="0.0717844" stop-color="#6A8BE7"/>
<stop offset="0.246461" stop-color="#9B55F3"/>
<stop offset="0.495" stop-color="#D451C1"/>
<stop offset="0.8" stop-color="#E75FA1"/>
</linearGradient>
<linearGradient id="paint54_linear_3311_2" x1="136.152" y1="359.359" x2="2332.82" y2="177.249" gradientUnits="userSpaceOnUse">
<stop offset="0.0717844" stop-color="#6A8BE7"/>
<stop offset="0.246461" stop-color="#9B55F3"/>
<stop offset="0.495" stop-color="#D451C1"/>
<stop offset="0.8" stop-color="#E75FA1"/>
</linearGradient>
<linearGradient id="paint55_linear_3311_2" x1="134.652" y1="357.858" x2="2330.93" y2="183.612" gradientUnits="userSpaceOnUse">
<stop offset="0.0717844" stop-color="#6A8BE7"/>
<stop offset="0.246461" stop-color="#9B55F3"/>
<stop offset="0.495" stop-color="#D451C1"/>
<stop offset="0.8" stop-color="#E75FA1"/>
</linearGradient>
<linearGradient id="paint56_linear_3311_2" x1="133.152" y1="356.358" x2="2329" y2="189.971" gradientUnits="userSpaceOnUse">
<stop offset="0.0717844" stop-color="#6A8BE7"/>
<stop offset="0.246461" stop-color="#9B55F3"/>
<stop offset="0.495" stop-color="#D451C1"/>
<stop offset="0.8" stop-color="#E75FA1"/>
</linearGradient>
<linearGradient id="paint57_linear_3311_2" x1="131.652" y1="354.858" x2="2327.04" y2="196.324" gradientUnits="userSpaceOnUse">
<stop offset="0.0717844" stop-color="#6A8BE7"/>
<stop offset="0.246461" stop-color="#9B55F3"/>
<stop offset="0.495" stop-color="#D451C1"/>
<stop offset="0.8" stop-color="#E75FA1"/>
</linearGradient>
<linearGradient id="paint58_linear_3311_2" x1="130.152" y1="353.358" x2="2325.06" y2="202.673" gradientUnits="userSpaceOnUse">
<stop offset="0.0717844" stop-color="#6A8BE7"/>
<stop offset="0.246461" stop-color="#9B55F3"/>
<stop offset="0.495" stop-color="#D451C1"/>
<stop offset="0.8" stop-color="#E75FA1"/>
</linearGradient>
<linearGradient id="paint59_linear_3311_2" x1="128.652" y1="351.858" x2="2323.05" y2="209.017" gradientUnits="userSpaceOnUse">
<stop offset="0.0717844" stop-color="#6A8BE7"/>
<stop offset="0.246461" stop-color="#9B55F3"/>
<stop offset="0.495" stop-color="#D451C1"/>
<stop offset="0.8" stop-color="#E75FA1"/>
</linearGradient>
<linearGradient id="paint60_linear_3311_2" x1="127.152" y1="350.358" x2="2321.01" y2="215.355" gradientUnits="userSpaceOnUse">
<stop offset="0.0717844" stop-color="#6A8BE7"/>
<stop offset="0.246461" stop-color="#9B55F3"/>
<stop offset="0.495" stop-color="#D451C1"/>
<stop offset="0.8" stop-color="#E75FA1"/>
</linearGradient>
<linearGradient id="paint61_linear_3311_2" x1="125.652" y1="348.858" x2="2318.94" y2="221.688" gradientUnits="userSpaceOnUse">
<stop offset="0.0717844" stop-color="#6A8BE7"/>
<stop offset="0.246461" stop-color="#9B55F3"/>
<stop offset="0.495" stop-color="#D451C1"/>
<stop offset="0.8" stop-color="#E75FA1"/>
</linearGradient>
<linearGradient id="paint62_linear_3311_2" x1="124.152" y1="347.36" x2="2316.85" y2="228.018" gradientUnits="userSpaceOnUse">
<stop offset="0.0717844" stop-color="#6A8BE7"/>
<stop offset="0.246461" stop-color="#9B55F3"/>
<stop offset="0.495" stop-color="#D451C1"/>
<stop offset="0.8" stop-color="#E75FA1"/>
</linearGradient>
<linearGradient id="paint63_linear_3311_2" x1="122.652" y1="345.858" x2="2314.73" y2="234.338" gradientUnits="userSpaceOnUse">
<stop offset="0.0717844" stop-color="#6A8BE7"/>
<stop offset="0.246461" stop-color="#9B55F3"/>
<stop offset="0.495" stop-color="#D451C1"/>
<stop offset="0.8" stop-color="#E75FA1"/>
</linearGradient>
<linearGradient id="paint64_linear_3311_2" x1="121.152" y1="344.358" x2="2312.58" y2="240.654" gradientUnits="userSpaceOnUse">
<stop offset="0.0717844" stop-color="#6A8BE7"/>
<stop offset="0.246461" stop-color="#9B55F3"/>
<stop offset="0.495" stop-color="#D451C1"/>
<stop offset="0.8" stop-color="#E75FA1"/>
</linearGradient>
<linearGradient id="paint65_linear_3311_2" x1="119.652" y1="342.858" x2="2310.4" y2="246.965" gradientUnits="userSpaceOnUse">
<stop offset="0.0717844" stop-color="#6A8BE7"/>
<stop offset="0.246461" stop-color="#9B55F3"/>
<stop offset="0.495" stop-color="#D451C1"/>
<stop offset="0.8" stop-color="#E75FA1"/>
</linearGradient>
<linearGradient id="paint66_linear_3311_2" x1="118.152" y1="341.358" x2="2308.19" y2="253.27" gradientUnits="userSpaceOnUse">
<stop offset="0.0717844" stop-color="#6A8BE7"/>
<stop offset="0.246461" stop-color="#9B55F3"/>
<stop offset="0.495" stop-color="#D451C1"/>
<stop offset="0.8" stop-color="#E75FA1"/>
</linearGradient>
<linearGradient id="paint67_linear_3311_2" x1="116.652" y1="339.858" x2="2305.96" y2="259.569" gradientUnits="userSpaceOnUse">
<stop offset="0.0717844" stop-color="#6A8BE7"/>
<stop offset="0.246461" stop-color="#9B55F3"/>
<stop offset="0.495" stop-color="#D451C1"/>
<stop offset="0.8" stop-color="#E75FA1"/>
</linearGradient>
<linearGradient id="paint68_linear_3311_2" x1="115.152" y1="338.358" x2="2303.69" y2="265.862" gradientUnits="userSpaceOnUse">
<stop offset="0.0717844" stop-color="#6A8BE7"/>
<stop offset="0.246461" stop-color="#9B55F3"/>
<stop offset="0.495" stop-color="#D451C1"/>
<stop offset="0.8" stop-color="#E75FA1"/>
</linearGradient>
<linearGradient id="paint69_linear_3311_2" x1="113.652" y1="336.858" x2="2301.41" y2="272.149" gradientUnits="userSpaceOnUse">
<stop offset="0.0717844" stop-color="#6A8BE7"/>
<stop offset="0.246461" stop-color="#9B55F3"/>
<stop offset="0.495" stop-color="#D451C1"/>
<stop offset="0.8" stop-color="#E75FA1"/>
</linearGradient>
<linearGradient id="paint70_linear_3311_2" x1="112.152" y1="335.358" x2="2299.09" y2="278.429" gradientUnits="userSpaceOnUse">
<stop offset="0.0717844" stop-color="#6A8BE7"/>
<stop offset="0.246461" stop-color="#9B55F3"/>
<stop offset="0.495" stop-color="#D451C1"/>
<stop offset="0.8" stop-color="#E75FA1"/>
</linearGradient>
<linearGradient id="paint71_linear_3311_2" x1="110.652" y1="333.858" x2="2296.74" y2="284.703" gradientUnits="userSpaceOnUse">
<stop offset="0.0717844" stop-color="#6A8BE7"/>
<stop offset="0.246461" stop-color="#9B55F3"/>
<stop offset="0.495" stop-color="#D451C1"/>
<stop offset="0.8" stop-color="#E75FA1"/>
</linearGradient>
<linearGradient id="paint72_linear_3311_2" x1="109.152" y1="332.358" x2="2294.37" y2="290.971" gradientUnits="userSpaceOnUse">
<stop offset="0.0717844" stop-color="#6A8BE7"/>
<stop offset="0.246461" stop-color="#9B55F3"/>
<stop offset="0.495" stop-color="#D451C1"/>
<stop offset="0.8" stop-color="#E75FA1"/>
</linearGradient>
<linearGradient id="paint73_linear_3311_2" x1="107.652" y1="330.858" x2="2291.97" y2="297.233" gradientUnits="userSpaceOnUse">
<stop offset="0.0717844" stop-color="#6A8BE7"/>
<stop offset="0.246461" stop-color="#9B55F3"/>
<stop offset="0.495" stop-color="#D451C1"/>
<stop offset="0.8" stop-color="#E75FA1"/>
</linearGradient>
<linearGradient id="paint74_linear_3311_2" x1="106.152" y1="329.36" x2="2289.54" y2="303.489" gradientUnits="userSpaceOnUse">
<stop offset="0.0717844" stop-color="#6A8BE7"/>
<stop offset="0.246461" stop-color="#9B55F3"/>
<stop offset="0.495" stop-color="#D451C1"/>
<stop offset="0.8" stop-color="#E75FA1"/>
</linearGradient>
<linearGradient id="paint75_linear_3311_2" x1="104.652" y1="327.858" x2="2287.09" y2="309.735" gradientUnits="userSpaceOnUse">
<stop offset="0.0717844" stop-color="#6A8BE7"/>
<stop offset="0.246461" stop-color="#9B55F3"/>
<stop offset="0.495" stop-color="#D451C1"/>
<stop offset="0.8" stop-color="#E75FA1"/>
</linearGradient>
<linearGradient id="paint76_linear_3311_2" x1="103.152" y1="326.358" x2="2284.6" y2="315.976" gradientUnits="userSpaceOnUse">
<stop offset="0.0717844" stop-color="#6A8BE7"/>
<stop offset="0.246461" stop-color="#9B55F3"/>
<stop offset="0.495" stop-color="#D451C1"/>
<stop offset="0.8" stop-color="#E75FA1"/>
</linearGradient>
<linearGradient id="paint77_linear_3311_2" x1="101.652" y1="324.858" x2="2282.09" y2="322.211" gradientUnits="userSpaceOnUse">
<stop offset="0.0717844" stop-color="#6A8BE7"/>
<stop offset="0.246461" stop-color="#9B55F3"/>
<stop offset="0.495" stop-color="#D451C1"/>
<stop offset="0.8" stop-color="#E75FA1"/>
</linearGradient>
<linearGradient id="paint78_linear_3311_2" x1="100.152" y1="323.358" x2="2279.56" y2="328.438" gradientUnits="userSpaceOnUse">
<stop offset="0.0717844" stop-color="#6A8BE7"/>
<stop offset="0.246461" stop-color="#9B55F3"/>
<stop offset="0.495" stop-color="#D451C1"/>
<stop offset="0.8" stop-color="#E75FA1"/>
</linearGradient>
<linearGradient id="paint79_linear_3311_2" x1="98.6519" y1="321.858" x2="2276.99" y2="334.658" gradientUnits="userSpaceOnUse">
<stop offset="0.0717844" stop-color="#6A8BE7"/>
<stop offset="0.246461" stop-color="#9B55F3"/>
<stop offset="0.495" stop-color="#D451C1"/>
<stop offset="0.8" stop-color="#E75FA1"/>
</linearGradient>
<linearGradient id="paint80_linear_3311_2" x1="97.1519" y1="320.358" x2="2274.4" y2="340.871" gradientUnits="userSpaceOnUse">
<stop offset="0.0717844" stop-color="#6A8BE7"/>
<stop offset="0.246461" stop-color="#9B55F3"/>
<stop offset="0.495" stop-color="#D451C1"/>
<stop offset="0.8" stop-color="#E75FA1"/>
</linearGradient>
<linearGradient id="paint81_linear_3311_2" x1="95.6519" y1="318.858" x2="2271.78" y2="347.077" gradientUnits="userSpaceOnUse">
<stop offset="0.0717844" stop-color="#6A8BE7"/>
<stop offset="0.246461" stop-color="#9B55F3"/>
<stop offset="0.495" stop-color="#D451C1"/>
<stop offset="0.8" stop-color="#E75FA1"/>
</linearGradient>
<linearGradient id="paint82_linear_3311_2" x1="94.1519" y1="317.358" x2="2269.13" y2="353.275" gradientUnits="userSpaceOnUse">
<stop offset="0.0717844" stop-color="#6A8BE7"/>
<stop offset="0.246461" stop-color="#9B55F3"/>
<stop offset="0.495" stop-color="#D451C1"/>
<stop offset="0.8" stop-color="#E75FA1"/>
</linearGradient>
<linearGradient id="paint83_linear_3311_2" x1="92.6519" y1="315.858" x2="2266.46" y2="359.466" gradientUnits="userSpaceOnUse">
<stop offset="0.0717844" stop-color="#6A8BE7"/>
<stop offset="0.246461" stop-color="#9B55F3"/>
<stop offset="0.495" stop-color="#D451C1"/>
<stop offset="0.8" stop-color="#E75FA1"/>
</linearGradient>
<linearGradient id="paint84_linear_3311_2" x1="91.1519" y1="314.36" x2="2263.75" y2="365.651" gradientUnits="userSpaceOnUse">
<stop offset="0.0717844" stop-color="#6A8BE7"/>
<stop offset="0.246461" stop-color="#9B55F3"/>
<stop offset="0.495" stop-color="#D451C1"/>
<stop offset="0.8" stop-color="#E75FA1"/>
</linearGradient>
<linearGradient id="paint85_linear_3311_2" x1="89.6519" y1="312.858" x2="2261.03" y2="371.824" gradientUnits="userSpaceOnUse">
<stop offset="0.0717844" stop-color="#6A8BE7"/>
<stop offset="0.246461" stop-color="#9B55F3"/>
<stop offset="0.495" stop-color="#D451C1"/>
<stop offset="0.8" stop-color="#E75FA1"/>
</linearGradient>
<linearGradient id="paint86_linear_3311_2" x1="88.1519" y1="311.358" x2="2258.27" y2="377.992" gradientUnits="userSpaceOnUse">
<stop offset="0.0717844" stop-color="#6A8BE7"/>
<stop offset="0.246461" stop-color="#9B55F3"/>
<stop offset="0.495" stop-color="#D451C1"/>
<stop offset="0.8" stop-color="#E75FA1"/>
</linearGradient>
<linearGradient id="paint87_linear_3311_2" x1="86.6519" y1="309.858" x2="2255.49" y2="384.152" gradientUnits="userSpaceOnUse">
<stop offset="0.0717844" stop-color="#6A8BE7"/>
<stop offset="0.246461" stop-color="#9B55F3"/>
<stop offset="0.495" stop-color="#D451C1"/>
<stop offset="0.8" stop-color="#E75FA1"/>
</linearGradient>
<linearGradient id="paint88_linear_3311_2" x1="85.1519" y1="308.36" x2="2252.68" y2="390.306" gradientUnits="userSpaceOnUse">
<stop offset="0.0717844" stop-color="#6A8BE7"/>
<stop offset="0.246461" stop-color="#9B55F3"/>
<stop offset="0.495" stop-color="#D451C1"/>
<stop offset="0.8" stop-color="#E75FA1"/>
</linearGradient>
<linearGradient id="paint89_linear_3311_2" x1="83.6519" y1="306.858" x2="2249.84" y2="396.448" gradientUnits="userSpaceOnUse">
<stop offset="0.0717844" stop-color="#6A8BE7"/>
<stop offset="0.246461" stop-color="#9B55F3"/>
<stop offset="0.495" stop-color="#D451C1"/>
<stop offset="0.8" stop-color="#E75FA1"/>
</linearGradient>
<linearGradient id="paint90_linear_3311_2" x1="82.1519" y1="305.358" x2="2246.97" y2="402.584" gradientUnits="userSpaceOnUse">
<stop offset="0.0717844" stop-color="#6A8BE7"/>
<stop offset="0.246461" stop-color="#9B55F3"/>
<stop offset="0.495" stop-color="#D451C1"/>
<stop offset="0.8" stop-color="#E75FA1"/>
</linearGradient>
<linearGradient id="paint91_linear_3311_2" x1="80.6519" y1="303.86" x2="2244.08" y2="408.713" gradientUnits="userSpaceOnUse">
<stop offset="0.0717844" stop-color="#6A8BE7"/>
<stop offset="0.246461" stop-color="#9B55F3"/>
<stop offset="0.495" stop-color="#D451C1"/>
<stop offset="0.8" stop-color="#E75FA1"/>
</linearGradient>
<linearGradient id="paint92_linear_3311_2" x1="79.1519" y1="302.358" x2="2241.17" y2="414.83" gradientUnits="userSpaceOnUse">
<stop offset="0.0717844" stop-color="#6A8BE7"/>
<stop offset="0.246461" stop-color="#9B55F3"/>
<stop offset="0.495" stop-color="#D451C1"/>
<stop offset="0.8" stop-color="#E75FA1"/>
</linearGradient>
<linearGradient id="paint93_linear_3311_2" x1="77.6519" y1="300.858" x2="2238.22" y2="420.941" gradientUnits="userSpaceOnUse">
<stop offset="0.0717844" stop-color="#6A8BE7"/>
<stop offset="0.246461" stop-color="#9B55F3"/>
<stop offset="0.495" stop-color="#D451C1"/>
<stop offset="0.8" stop-color="#E75FA1"/>
</linearGradient>
<linearGradient id="paint94_linear_3311_2" x1="76.1519" y1="299.358" x2="2235.25" y2="427.043" gradientUnits="userSpaceOnUse">
<stop offset="0.0717844" stop-color="#6A8BE7"/>
<stop offset="0.246461" stop-color="#9B55F3"/>
<stop offset="0.495" stop-color="#D451C1"/>
<stop offset="0.8" stop-color="#E75FA1"/>
</linearGradient>
<linearGradient id="paint95_linear_3311_2" x1="74.6519" y1="297.86" x2="2232.25" y2="433.138" gradientUnits="userSpaceOnUse">
<stop offset="0.0717844" stop-color="#6A8BE7"/>
<stop offset="0.246461" stop-color="#9B55F3"/>
<stop offset="0.495" stop-color="#D451C1"/>
<stop offset="0.8" stop-color="#E75FA1"/>
</linearGradient>
<linearGradient id="paint96_linear_3311_2" x1="73.1519" y1="296.358" x2="2229.23" y2="439.221" gradientUnits="userSpaceOnUse">
<stop offset="0.0717844" stop-color="#6A8BE7"/>
<stop offset="0.246461" stop-color="#9B55F3"/>
<stop offset="0.495" stop-color="#D451C1"/>
<stop offset="0.8" stop-color="#E75FA1"/>
</linearGradient>
<linearGradient id="paint97_linear_3311_2" x1="71.6519" y1="294.86" x2="2226.17" y2="445.299" gradientUnits="userSpaceOnUse">
<stop offset="0.0717844" stop-color="#6A8BE7"/>
<stop offset="0.246461" stop-color="#9B55F3"/>
<stop offset="0.495" stop-color="#D451C1"/>
<stop offset="0.8" stop-color="#E75FA1"/>
</linearGradient>
<linearGradient id="paint98_linear_3311_2" x1="70.1519" y1="293.358" x2="2223.1" y2="451.364" gradientUnits="userSpaceOnUse">
<stop offset="0.0717844" stop-color="#6A8BE7"/>
<stop offset="0.246461" stop-color="#9B55F3"/>
<stop offset="0.495" stop-color="#D451C1"/>
<stop offset="0.8" stop-color="#E75FA1"/>
</linearGradient>
</defs>
</svg>
