<svg width="949" height="158" viewBox="0 0 949 158" fill="none" xmlns="http://www.w3.org/2000/svg">
<path d="M830.4 0H779.426L896.609 158H948.147L830.4 0Z" fill="url(#paint0_linear_105_2163)"/>
<path d="M946.831 0H895.857L877.647 24.1753L903.274 58.7282L946.831 0Z" fill="url(#paint1_linear_105_2163)"/>
<path d="M778.109 158H829.647L848.28 132.781L822.654 98.2282L778.109 158Z" fill="url(#paint2_linear_105_2163)"/>
<path d="M730.189 158V0H777.401V158H730.189Z" fill="url(#paint3_linear_105_2163)"/>
<path d="M731.334 158H682.805L659.66 127.309L663.996 70.3476L636.515 96.6175L610.953 123.579V158H563.929V121.321L610.953 70.3476L676.034 0H728.888L663.996 70.3476L731.334 158Z" fill="url(#paint4_linear_105_2163)"/>
<path d="M610.953 0H563.929V79L610.953 33.481V0Z" fill="url(#paint5_linear_105_2163)"/>
<path d="M446.736 0H392.376L503.352 158H556.583V0H510.5V92.3548L446.736 0Z" fill="url(#paint6_linear_105_2163)"/>
<path d="M392.376 158H438.459V88.7339L392.376 134.911V158Z" fill="url(#paint7_linear_105_2163)"/>
<path d="M337.873 158V0H385.085V158H337.873Z" fill="url(#paint8_linear_105_2163)"/>
<path d="M283.135 0H330.347V158H283.135V98.75H216.173V158H168.961V0H216.173V98.75L249.654 59.25H283.135V0Z" fill="url(#paint9_linear_105_2163)"/>
<path d="M162.326 0V39.5H104.769L57.5571 0V39.5H0V0H57.5571H162.326Z" fill="url(#paint10_linear_105_2163)"/>
<path d="M57.5571 158H104.769V108.625L57.5571 69.125V158Z" fill="url(#paint11_linear_105_2163)"/>
<defs>
<linearGradient id="paint0_linear_105_2163" x1="0" y1="0" x2="948.153" y2="157.602" gradientUnits="userSpaceOnUse">
<stop offset="0.23" stop-color="#E75FA1"/>
<stop offset="0.5" stop-color="#D451C1"/>
<stop offset="0.753539" stop-color="#9B55F3"/>
<stop offset="0.928216" stop-color="#6A8BE7"/>
</linearGradient>
<linearGradient id="paint1_linear_105_2163" x1="0" y1="0" x2="948.153" y2="157.602" gradientUnits="userSpaceOnUse">
<stop offset="0.23" stop-color="#E75FA1"/>
<stop offset="0.5" stop-color="#D451C1"/>
<stop offset="0.753539" stop-color="#9B55F3"/>
<stop offset="0.928216" stop-color="#6A8BE7"/>
</linearGradient>
<linearGradient id="paint2_linear_105_2163" x1="0" y1="0" x2="948.153" y2="157.602" gradientUnits="userSpaceOnUse">
<stop offset="0.23" stop-color="#E75FA1"/>
<stop offset="0.5" stop-color="#D451C1"/>
<stop offset="0.753539" stop-color="#9B55F3"/>
<stop offset="0.928216" stop-color="#6A8BE7"/>
</linearGradient>
<linearGradient id="paint3_linear_105_2163" x1="0" y1="0" x2="948.153" y2="157.602" gradientUnits="userSpaceOnUse">
<stop offset="0.23" stop-color="#E75FA1"/>
<stop offset="0.5" stop-color="#D451C1"/>
<stop offset="0.753539" stop-color="#9B55F3"/>
<stop offset="0.928216" stop-color="#6A8BE7"/>
</linearGradient>
<linearGradient id="paint4_linear_105_2163" x1="0" y1="0" x2="948.153" y2="157.602" gradientUnits="userSpaceOnUse">
<stop offset="0.23" stop-color="#E75FA1"/>
<stop offset="0.5" stop-color="#D451C1"/>
<stop offset="0.753539" stop-color="#9B55F3"/>
<stop offset="0.928216" stop-color="#6A8BE7"/>
</linearGradient>
<linearGradient id="paint5_linear_105_2163" x1="0" y1="0" x2="948.153" y2="157.602" gradientUnits="userSpaceOnUse">
<stop offset="0.23" stop-color="#E75FA1"/>
<stop offset="0.5" stop-color="#D451C1"/>
<stop offset="0.753539" stop-color="#9B55F3"/>
<stop offset="0.928216" stop-color="#6A8BE7"/>
</linearGradient>
<linearGradient id="paint6_linear_105_2163" x1="0" y1="0" x2="948.153" y2="157.602" gradientUnits="userSpaceOnUse">
<stop offset="0.23" stop-color="#E75FA1"/>
<stop offset="0.5" stop-color="#D451C1"/>
<stop offset="0.753539" stop-color="#9B55F3"/>
<stop offset="0.928216" stop-color="#6A8BE7"/>
</linearGradient>
<linearGradient id="paint7_linear_105_2163" x1="0" y1="0" x2="948.153" y2="157.602" gradientUnits="userSpaceOnUse">
<stop offset="0.23" stop-color="#E75FA1"/>
<stop offset="0.5" stop-color="#D451C1"/>
<stop offset="0.753539" stop-color="#9B55F3"/>
<stop offset="0.928216" stop-color="#6A8BE7"/>
</linearGradient>
<linearGradient id="paint8_linear_105_2163" x1="0" y1="0" x2="948.153" y2="157.602" gradientUnits="userSpaceOnUse">
<stop offset="0.23" stop-color="#E75FA1"/>
<stop offset="0.5" stop-color="#D451C1"/>
<stop offset="0.753539" stop-color="#9B55F3"/>
<stop offset="0.928216" stop-color="#6A8BE7"/>
</linearGradient>
<linearGradient id="paint9_linear_105_2163" x1="0" y1="0" x2="948.153" y2="157.602" gradientUnits="userSpaceOnUse">
<stop offset="0.23" stop-color="#E75FA1"/>
<stop offset="0.5" stop-color="#D451C1"/>
<stop offset="0.753539" stop-color="#9B55F3"/>
<stop offset="0.928216" stop-color="#6A8BE7"/>
</linearGradient>
<linearGradient id="paint10_linear_105_2163" x1="0" y1="0" x2="948.153" y2="157.602" gradientUnits="userSpaceOnUse">
<stop offset="0.23" stop-color="#E75FA1"/>
<stop offset="0.5" stop-color="#D451C1"/>
<stop offset="0.753539" stop-color="#9B55F3"/>
<stop offset="0.928216" stop-color="#6A8BE7"/>
</linearGradient>
<linearGradient id="paint11_linear_105_2163" x1="0" y1="0" x2="948.153" y2="157.602" gradientUnits="userSpaceOnUse">
<stop offset="0.23" stop-color="#E75FA1"/>
<stop offset="0.5" stop-color="#D451C1"/>
<stop offset="0.753539" stop-color="#9B55F3"/>
<stop offset="0.928216" stop-color="#6A8BE7"/>
</linearGradient>
</defs>
</svg>
