<svg width="1115" height="187" viewBox="0 0 1115 187" fill="none" xmlns="http://www.w3.org/2000/svg">
<path d="M975.837 0.587524H915.946L1053.63 186.227H1114.18L975.837 0.587524Z" fill="url(#paint0_linear_105_2031)"/>
<path d="M1112.64 0.587524H1052.74L1031.35 28.9919L1061.46 69.5894L1112.64 0.587524Z" fill="url(#paint1_linear_105_2031)"/>
<path d="M914.399 186.227H974.953L996.845 156.597L966.736 115.999L914.399 186.227Z" fill="url(#paint2_linear_105_2031)"/>
<path d="M858.096 186.227V0.587524H913.567V186.227H858.096Z" fill="url(#paint3_linear_105_2031)"/>
<path d="M859.441 186.227H802.423L775.228 150.167L780.323 83.2414L748.034 114.107L718.001 145.784V186.227H662.751V143.132L718.001 83.2414L794.467 0.587524H856.568L780.323 83.2414L859.441 186.227Z" fill="url(#paint4_linear_105_2031)"/>
<path d="M718.001 0.587524H662.751V93.4074L718.001 39.9255V0.587524Z" fill="url(#paint5_linear_105_2031)"/>
<path d="M525.056 0.587524H461.187L591.577 186.227H654.12V0.587524H599.975V109.098L525.056 0.587524Z" fill="url(#paint6_linear_105_2031)"/>
<path d="M461.187 186.227H515.332V104.844L461.187 159.1V186.227Z" fill="url(#paint7_linear_105_2031)"/>
<path d="M397.149 186.227V0.587524H452.62V186.227H397.149Z" fill="url(#paint8_linear_105_2031)"/>
<path d="M332.836 0.587524H388.307V186.227H332.836V116.612H254.16V186.227H198.689V0.587524H254.16V116.612L293.498 70.2025H332.836V0.587524Z" fill="url(#paint9_linear_105_2031)"/>
<path d="M190.893 0.587524V46.9975H123.267L67.7964 0.587524V46.9975H0.17041V0.587524H67.7964H190.893Z" fill="url(#paint10_linear_105_2031)"/>
<path d="M67.7964 186.227H123.267V128.215L67.7964 81.8049V186.227Z" fill="url(#paint11_linear_105_2031)"/>
<defs>
<linearGradient id="paint0_linear_105_2031" x1="0.17041" y1="0.587524" x2="1114.19" y2="185.76" gradientUnits="userSpaceOnUse">
<stop offset="0.0717844" stop-color="#6A8BE7"/>
<stop offset="0.246461" stop-color="#9B55F3"/>
<stop offset="0.5" stop-color="#D451C1"/>
<stop offset="0.77" stop-color="#E75FA1"/>
</linearGradient>
<linearGradient id="paint1_linear_105_2031" x1="0.17041" y1="0.587524" x2="1114.19" y2="185.76" gradientUnits="userSpaceOnUse">
<stop offset="0.0717844" stop-color="#6A8BE7"/>
<stop offset="0.246461" stop-color="#9B55F3"/>
<stop offset="0.5" stop-color="#D451C1"/>
<stop offset="0.77" stop-color="#E75FA1"/>
</linearGradient>
<linearGradient id="paint2_linear_105_2031" x1="0.17041" y1="0.587524" x2="1114.19" y2="185.76" gradientUnits="userSpaceOnUse">
<stop offset="0.0717844" stop-color="#6A8BE7"/>
<stop offset="0.246461" stop-color="#9B55F3"/>
<stop offset="0.5" stop-color="#D451C1"/>
<stop offset="0.77" stop-color="#E75FA1"/>
</linearGradient>
<linearGradient id="paint3_linear_105_2031" x1="0.17041" y1="0.587524" x2="1114.19" y2="185.76" gradientUnits="userSpaceOnUse">
<stop offset="0.0717844" stop-color="#6A8BE7"/>
<stop offset="0.246461" stop-color="#9B55F3"/>
<stop offset="0.5" stop-color="#D451C1"/>
<stop offset="0.77" stop-color="#E75FA1"/>
</linearGradient>
<linearGradient id="paint4_linear_105_2031" x1="0.17041" y1="0.587524" x2="1114.19" y2="185.76" gradientUnits="userSpaceOnUse">
<stop offset="0.0717844" stop-color="#6A8BE7"/>
<stop offset="0.246461" stop-color="#9B55F3"/>
<stop offset="0.5" stop-color="#D451C1"/>
<stop offset="0.77" stop-color="#E75FA1"/>
</linearGradient>
<linearGradient id="paint5_linear_105_2031" x1="0.17041" y1="0.587524" x2="1114.19" y2="185.76" gradientUnits="userSpaceOnUse">
<stop offset="0.0717844" stop-color="#6A8BE7"/>
<stop offset="0.246461" stop-color="#9B55F3"/>
<stop offset="0.5" stop-color="#D451C1"/>
<stop offset="0.77" stop-color="#E75FA1"/>
</linearGradient>
<linearGradient id="paint6_linear_105_2031" x1="0.17041" y1="0.587524" x2="1114.19" y2="185.76" gradientUnits="userSpaceOnUse">
<stop offset="0.0717844" stop-color="#6A8BE7"/>
<stop offset="0.246461" stop-color="#9B55F3"/>
<stop offset="0.5" stop-color="#D451C1"/>
<stop offset="0.77" stop-color="#E75FA1"/>
</linearGradient>
<linearGradient id="paint7_linear_105_2031" x1="0.17041" y1="0.587524" x2="1114.19" y2="185.76" gradientUnits="userSpaceOnUse">
<stop offset="0.0717844" stop-color="#6A8BE7"/>
<stop offset="0.246461" stop-color="#9B55F3"/>
<stop offset="0.5" stop-color="#D451C1"/>
<stop offset="0.77" stop-color="#E75FA1"/>
</linearGradient>
<linearGradient id="paint8_linear_105_2031" x1="0.17041" y1="0.587524" x2="1114.19" y2="185.76" gradientUnits="userSpaceOnUse">
<stop offset="0.0717844" stop-color="#6A8BE7"/>
<stop offset="0.246461" stop-color="#9B55F3"/>
<stop offset="0.5" stop-color="#D451C1"/>
<stop offset="0.77" stop-color="#E75FA1"/>
</linearGradient>
<linearGradient id="paint9_linear_105_2031" x1="0.17041" y1="0.587524" x2="1114.19" y2="185.76" gradientUnits="userSpaceOnUse">
<stop offset="0.0717844" stop-color="#6A8BE7"/>
<stop offset="0.246461" stop-color="#9B55F3"/>
<stop offset="0.5" stop-color="#D451C1"/>
<stop offset="0.77" stop-color="#E75FA1"/>
</linearGradient>
<linearGradient id="paint10_linear_105_2031" x1="0.17041" y1="0.587524" x2="1114.19" y2="185.76" gradientUnits="userSpaceOnUse">
<stop offset="0.0717844" stop-color="#6A8BE7"/>
<stop offset="0.246461" stop-color="#9B55F3"/>
<stop offset="0.5" stop-color="#D451C1"/>
<stop offset="0.77" stop-color="#E75FA1"/>
</linearGradient>
<linearGradient id="paint11_linear_105_2031" x1="0.17041" y1="0.587524" x2="1114.19" y2="185.76" gradientUnits="userSpaceOnUse">
<stop offset="0.0717844" stop-color="#6A8BE7"/>
<stop offset="0.246461" stop-color="#9B55F3"/>
<stop offset="0.5" stop-color="#D451C1"/>
<stop offset="0.77" stop-color="#E75FA1"/>
</linearGradient>
</defs>
</svg>
